<svg width="22" height="11" viewBox="0 0 22 11" fill="none" xmlns="http://www.w3.org/2000/svg">
<path d="M17.5593 2.70569C17.5593 2.15023 18.1718 1.66045 18.9247 1.66045C19.6776 1.66045 20.2902 2.11237 20.2902 2.66782C20.2902 3.22327 19.6776 3.67519 18.9247 3.67519C18.5238 3.67519 18.1987 3.91494 18.1987 4.21078C18.1987 4.50651 18.5238 4.74637 18.9247 4.74637C20.4783 4.74637 21.7421 3.814 21.7421 2.66777C21.7421 1.52164 20.4783 0.589268 18.9247 0.589268C17.5107 0.589268 16.3369 1.36186 16.1375 2.36488C15.2094 2.60808 14.3585 2.72703 13.5478 2.72703C13.5477 2.72703 13.5474 2.72703 13.5472 2.72703C11.8282 2.72682 10.5469 2.18747 9.19047 1.6166C8.38013 1.27548 7.54231 0.922815 6.60563 0.692488C5.94864 0.530905 5.2831 0.448975 4.62754 0.448975C2.21305 0.448975 0.697414 1.54669 0.634026 1.5933C0.46145 1.72062 0.387222 1.90338 0.436181 2.0798C0.485212 2.25616 0.651183 2.40254 0.877743 2.46932C3.05978 3.11322 4.26221 4.19531 5.42495 5.24171C6.58015 6.28117 7.76736 7.34802 9.81308 7.74543C9.12981 8.20524 8.46822 8.88118 8.46822 9.77616C8.46822 10.0719 8.79327 10.3116 9.1942 10.3116H13.9857C13.9863 10.3116 13.9868 10.3116 13.9871 10.3116C14.3881 10.3116 14.7131 10.0719 14.7131 9.77616C14.7131 9.76313 14.7125 9.75021 14.7112 9.7374C14.6916 8.81625 13.9708 8.13057 13.2619 7.6768C15.7774 6.96273 17.5593 4.68239 17.5593 2.70569ZM10.0742 9.24068C10.3999 8.68231 11.1643 8.29008 11.589 8.10647C12.0126 8.29072 12.7772 8.68438 13.1043 9.24068H10.0742ZM14.7304 5.5267C13.8331 6.37158 12.723 6.83695 11.6047 6.83695C9.0751 6.83695 7.95989 5.83329 6.54791 4.56265C5.53098 3.64754 4.40091 2.63064 2.58742 1.88522C3.09266 1.69562 3.7872 1.52027 4.62761 1.52027C5.12675 1.52027 5.63773 1.58366 6.14648 1.70886C6.94727 1.90571 7.68739 2.21728 8.47094 2.54702C9.9321 3.16205 11.4431 3.79811 13.5471 3.79821C13.5474 3.79821 13.5477 3.79821 13.5479 3.79821C14.3356 3.79821 15.1437 3.70834 15.9954 3.52472C15.7998 4.22624 15.3568 4.93677 14.7304 5.5267Z" fill="#333333"/>
</svg>
