<svg width="22" height="17" viewBox="0 0 22 17" fill="none" xmlns="http://www.w3.org/2000/svg">
<path d="M21.7421 8.15095C21.7421 7.74748 21.3082 7.42038 20.773 7.42038H20.6847C20.281 5.77051 18.536 4.47044 16.3369 4.18932C15.9104 2.29345 13.7162 0.845215 11.0818 0.845215C8.44729 0.845215 6.25307 2.29345 5.82659 4.18932C3.62751 4.47044 1.88257 5.77051 1.4789 7.42038H1.39051C0.855296 7.42038 0.421387 7.74748 0.421387 8.15095C0.421387 11.0374 2.45093 13.5729 5.49036 14.9901C5.35094 15.1167 5.26701 15.2792 5.26701 15.4566C5.26701 15.8601 5.70092 16.1872 6.23614 16.1872H15.9274C16.4626 16.1872 16.8965 15.8601 16.8965 15.4566C16.8965 15.2792 16.8126 15.1167 16.6732 14.9901C19.7126 13.5729 21.7421 11.0374 21.7421 8.15095ZM6.7207 5.59391C7.25592 5.59391 7.68983 5.26681 7.68983 4.86334C7.68983 3.45339 9.21142 2.30635 11.0818 2.30635C12.952 2.30635 14.4737 3.45339 14.4737 4.86334C14.4737 5.26681 14.9076 5.59391 15.4428 5.59391C16.9764 5.59391 18.2749 6.36539 18.693 7.42038H13.9891C14.4173 7.17827 14.5041 6.72035 14.183 6.39758C13.8618 6.07477 13.2543 6.00941 12.8262 6.25147L12.0509 6.68981V5.08251C12.0509 4.67904 11.617 4.35194 11.0818 4.35194C10.5465 4.35194 10.1126 4.67904 10.1126 5.08251V6.68981L9.33734 6.25147C8.90918 6.00936 8.30173 6.07482 7.98056 6.39758C7.6594 6.72035 7.74623 7.17827 8.17439 7.42038L8.17445 7.42043H3.47058C3.88859 6.36539 5.18709 5.59391 6.7207 5.59391ZM11.0818 14.726C6.59995 14.726 2.89679 12.1644 2.41313 8.88152H11.0794C11.08 8.88152 11.0805 8.88157 11.0811 8.88157C11.0813 8.88157 11.0816 8.88152 11.0818 8.88152C11.0821 8.88152 11.0823 8.88157 11.0826 8.88157C11.0831 8.88157 11.0837 8.88152 11.0842 8.88152H19.7505C19.2667 12.1644 15.5636 14.726 11.0818 14.726Z" fill="#333333"/>
</svg>
