<svg width="25" height="26" viewBox="0 0 25 26" fill="none" xmlns="http://www.w3.org/2000/svg">
<path fill-rule="evenodd" clip-rule="evenodd" d="M16.8671 15.1176H9.4311L7.8332 8.79217H19.7955L16.8671 15.1176ZM21.4553 7.68315C21.0971 7.05693 20.4763 6.68372 19.7949 6.68372H7.30068L6.69842 4.29797C6.58226 3.83938 6.1967 3.521 5.75647 3.521H3.80424C3.26445 3.521 2.82812 3.9933 2.82812 4.57524C2.82812 5.15718 3.26445 5.62948 3.80424 5.62948H5.01072L7.74286 16.4492C7.85902 16.9078 8.24458 17.2262 8.68481 17.2262H17.4698C17.8398 17.2262 18.1775 17.0005 18.3435 16.6432L21.5412 9.7347C21.8467 9.0758 21.8136 8.30937 21.4553 7.68315ZM8.19706 19.3346C7.38884 19.3346 6.73289 20.042 6.73289 20.916C6.73289 21.7899 7.38884 22.4973 8.19706 22.4973C9.00528 22.4973 9.66123 21.7899 9.66123 20.916C9.66123 20.042 9.00528 19.3346 8.19706 19.3346ZM16.494 20.916C16.494 20.042 17.15 19.3346 17.9582 19.3346C18.7664 19.3346 19.4224 20.042 19.4224 20.916C19.4224 21.7899 18.7664 22.4973 17.9582 22.4973C17.15 22.4973 16.494 21.7899 16.494 20.916Z" fill="white"/>
<mask id="mask0_48064_668" style="mask-type:luminance" maskUnits="userSpaceOnUse" x="2" y="3" width="20" height="20">
<path fill-rule="evenodd" clip-rule="evenodd" d="M16.8671 15.1176H9.4311L7.8332 8.79217H19.7955L16.8671 15.1176ZM21.4553 7.68315C21.0971 7.05693 20.4763 6.68372 19.7949 6.68372H7.30068L6.69842 4.29797C6.58226 3.83938 6.1967 3.521 5.75647 3.521H3.80424C3.26445 3.521 2.82812 3.9933 2.82812 4.57524C2.82812 5.15718 3.26445 5.62948 3.80424 5.62948H5.01072L7.74286 16.4492C7.85902 16.9078 8.24458 17.2262 8.68481 17.2262H17.4698C17.8398 17.2262 18.1775 17.0005 18.3435 16.6432L21.5412 9.7347C21.8467 9.0758 21.8136 8.30937 21.4553 7.68315ZM8.19706 19.3346C7.38884 19.3346 6.73289 20.042 6.73289 20.916C6.73289 21.7899 7.38884 22.4973 8.19706 22.4973C9.00528 22.4973 9.66123 21.7899 9.66123 20.916C9.66123 20.042 9.00528 19.3346 8.19706 19.3346ZM16.494 20.916C16.494 20.042 17.15 19.3346 17.9582 19.3346C18.7664 19.3346 19.4224 20.042 19.4224 20.916C19.4224 21.7899 18.7664 22.4973 17.9582 22.4973C17.15 22.4973 16.494 21.7899 16.494 20.916Z" fill="white"/>
</mask>
<g mask="url(#mask0_48064_668)">
<rect x="0.875977" y="0.358154" width="23.4267" height="25.3018" fill="white"/>
</g>
</svg>
