<svg width="17" height="14" viewBox="0 0 17 14" fill="none" xmlns="http://www.w3.org/2000/svg">
<path d="M2.36375 13.2817H15.0765C16.0639 13.2817 16.865 12.4805 16.865 11.4931V3.89007C16.865 2.9027 16.0639 2.10151 15.0765 2.10151H11.3863C11.1603 2.10151 10.9774 2.28435 10.9774 2.51042C10.9774 2.73648 11.1603 2.91933 11.3863 2.91933H15.0765C15.6151 2.91933 16.0506 3.35483 16.0506 3.89339V11.4964C16.0506 12.035 15.6151 12.4705 15.0765 12.4705H2.36375C1.82519 12.4705 1.38969 12.035 1.38969 11.4964V3.89007C1.38969 3.35151 1.82519 2.916 2.36375 2.916H7.73608L6.36973 4.28236C6.21016 4.44193 6.21016 4.69791 6.36973 4.85749C6.44952 4.93727 6.55257 4.97717 6.65896 4.97717C6.76534 4.97717 6.8684 4.93727 6.94818 4.85749L9.00935 2.79632C9.16892 2.63675 9.16892 2.38076 9.00935 2.22119L6.94818 0.160025C6.78861 0.000450715 6.53263 0.000450715 6.37305 0.160025C6.21348 0.319599 6.21348 0.575582 6.37305 0.735156L7.73941 2.10151H2.36375C1.37639 2.10151 0.575195 2.9027 0.575195 3.89007V11.4931C0.575195 12.4771 1.37639 13.2817 2.36375 13.2817Z" fill="#00AC4E"/>
</svg>
