<svg width="43" height="40" viewBox="0 0 43 40" fill="none" xmlns="http://www.w3.org/2000/svg">
<g clip-path="url(#clip0_175_1413)">
<path d="M34.6394 28.3402C32.6202 28.3402 30.9775 29.9348 30.9775 31.8955C30.9775 33.857 32.6202 35.4527 34.6394 35.4527C36.6594 35.4527 38.3016 33.857 38.3016 31.8955C38.3016 29.9348 36.6594 28.3402 34.6394 28.3402Z" fill="#00AC4E"/>
<path d="M9.94798 28.3402C7.92777 28.3402 6.28516 29.9348 6.28516 31.8955C6.28516 33.857 7.92777 35.4527 9.94798 35.4527C11.9671 35.4527 13.6097 33.857 13.6097 31.8955C13.6098 29.9348 11.9672 28.3402 9.94798 28.3402Z" fill="#00AC4E"/>
<path d="M36.7055 13.4037C36.5123 12.8393 35.9674 12.4579 35.3535 12.4579H33.6226V18.3606H38.3992L36.7055 13.4037Z" fill="#00AC4E"/>
<path d="M41.2938 20.5703H33.6226V26.2172C33.9531 26.1622 34.2929 26.1314 34.6392 26.1314C37.7001 26.1314 40.2273 28.39 40.5455 31.2795H40.8136C41.5995 31.2795 42.2371 30.6614 42.2371 29.8985V21.8685C42.2371 21.2693 41.8431 20.7618 41.2938 20.5703Z" fill="#00AC4E"/>
<path d="M31.2897 5.92874C31.2897 5.16591 30.652 4.54773 29.866 4.54773H2.40058C1.6147 4.54773 0.977051 5.16578 0.977051 5.92874V29.8982C0.977051 30.661 1.6147 31.2792 2.40058 31.2792H4.03986C4.35813 28.3896 6.88526 26.131 9.94669 26.131C13.007 26.131 15.5337 28.3896 15.852 31.2792H27.0942H28.7335C28.9252 29.5394 29.9173 28.0303 31.3447 27.103L31.2897 5.92874Z" fill="#00AC4E"/>
</g>
<defs>
<clipPath id="clip0_175_1413">
<rect width="41.2598" height="40" fill="white" transform="translate(0.976562)"/>
</clipPath>
</defs>
</svg>
