<svg width="17" height="17" viewBox="0 0 17 17" fill="none" xmlns="http://www.w3.org/2000/svg">
<path fill-rule="evenodd" clip-rule="evenodd" d="M6.15417 6.49963C6.15417 3.60014 8.50468 1.24963 11.4042 1.24963C14.3037 1.24963 16.6542 3.60014 16.6542 6.49963C16.6542 9.39913 14.3037 11.7496 11.4042 11.7496H9.90417V13.2496H8.40417V14.7496H6.90417V16.2496H1.65417V12.189L6.26518 7.57797C6.19164 7.22599 6.15417 6.86511 6.15417 6.49963ZM8.40428 10.2499H11.4043C13.4753 10.2499 15.1543 8.57099 15.1543 6.49993C15.1543 4.42886 13.4753 2.74993 11.4043 2.74993C9.33321 2.74993 7.65428 4.42886 7.65428 6.49993C7.65428 6.8739 7.7088 7.23971 7.81484 7.58958L7.9452 8.01967L3.15428 12.8106V14.7499H5.40428V13.2499H6.90428V11.7499H8.40428V10.2499ZM9.90421 6.50022C9.90421 7.32865 10.5758 8.00022 11.4042 8.00022C12.2326 8.00022 12.9042 7.32865 12.9042 6.50022C12.9042 5.67179 12.2326 5.00022 11.4042 5.00022C10.5758 5.00022 9.90421 5.67179 9.90421 6.50022Z" fill="#C6C6C6"/>
</svg>
