<svg width="51" height="41" viewBox="0 0 51 41" fill="none" xmlns="http://www.w3.org/2000/svg">
<path d="M50.2143 31.8596L48.627 20.9247C48.4262 19.5409 46.875 18.4973 45.0189 18.4973H43.8627V16.5072C43.8627 13.8781 41.0107 11.7392 37.5053 11.7392C33.9999 11.7392 31.1479 13.8782 31.1479 16.5072V18.4972H29.9916C28.1357 18.4972 26.5845 19.5408 26.3835 20.9247L24.7963 31.8596C24.5626 33.4693 26.2466 34.8761 28.4044 34.8761H46.6063C48.7617 34.8762 50.4483 33.4713 50.2143 31.8596ZM46.6064 33.5152H28.4045C27.322 33.5152 26.4833 32.8128 26.6005 32.0069L28.1877 21.0721C28.2882 20.3802 29.0638 19.8583 29.9917 19.8583H31.148V21.5758C31.148 21.9516 31.5543 22.2563 32.0553 22.2563C32.5564 22.2563 32.9627 21.9516 32.9627 21.5758V16.5073C32.9627 14.6287 35.0005 13.1003 37.5055 13.1003C40.0102 13.1003 42.0481 14.6287 42.0481 16.5073V18.4973H36.305C35.804 18.4973 35.3977 18.802 35.3977 19.1778C35.3977 19.5536 35.804 19.8583 36.305 19.8583H42.0481V21.5758C42.0481 21.9516 42.4544 22.2563 42.9554 22.2563C43.4565 22.2563 43.8628 21.9516 43.8628 21.5758V19.8583H45.019C45.9471 19.8583 46.7227 20.3801 46.823 21.072L48.4103 32.0068C48.5276 32.8139 47.6874 33.5152 46.6064 33.5152ZM40.6811 37.4281C40.18 37.4281 39.7738 37.7328 39.7738 38.1086C39.7738 38.859 38.9597 39.4696 37.9591 39.4696H3.70744C2.70688 39.4696 1.89278 38.859 1.89278 38.1086V2.72273C1.89278 1.97231 2.70688 1.36173 3.70744 1.36173H29.2261V6.55052C29.2261 8.05144 30.8542 9.27251 32.8554 9.27251H40.6811C41.4877 9.27251 41.8927 8.53834 41.3227 8.11082C29.9638 -0.408323 30.6991 0.0716826 30.3109 0.0139254C30.1856 -0.00470322 31.6306 0.000740759 3.70744 0.000740759C1.70621 0.000740759 0.078125 1.22181 0.078125 2.72273V38.1086C0.078125 39.6095 1.70621 40.8306 3.70744 40.8306H37.9591C39.9603 40.8306 41.5884 39.6095 41.5884 38.1086C41.5884 37.7327 41.1822 37.4281 40.6811 37.4281ZM32.8554 7.91152C31.8548 7.91152 31.0407 7.30094 31.0407 6.55052V2.32404L38.4907 7.91152H32.8554ZM14.495 10.0384C14.498 8.90845 13.2798 7.99292 11.773 7.99292H9.94181C8.44098 7.99292 7.21983 8.9087 7.21983 10.0344V11.4026C7.21983 12.5283 8.44098 13.4441 9.94181 13.4441H11.7695C13.2676 13.4441 14.4888 12.53 14.4915 11.4065L14.495 10.0384ZM12.6768 11.404C12.6759 11.7785 12.2689 12.0831 11.7695 12.0831H9.94181C9.44153 12.0831 9.03448 11.7778 9.03448 11.4026V10.0344C9.03448 9.6592 9.44153 9.35392 9.94181 9.35392H11.773C12.2754 9.35392 12.6813 9.65903 12.6804 10.0357L12.6768 11.404ZM14.482 20.2455C14.482 19.1198 13.2608 18.204 11.76 18.204H9.94533C8.44449 18.204 7.22334 19.1198 7.22334 20.2455V21.6065C7.22334 22.7322 8.44449 23.648 9.94533 23.648H11.76C13.2608 23.648 14.482 22.7322 14.482 21.6065V20.2455ZM12.6673 21.6065C12.6673 21.9817 12.2603 22.287 11.76 22.287H9.94533C9.44505 22.287 9.038 21.9817 9.038 21.6065V20.2455C9.038 19.8703 9.44505 19.565 9.94533 19.565H11.76C12.2603 19.565 12.6673 19.8703 12.6673 20.2455V21.6065ZM11.76 28.4115H9.94533C8.44449 28.4115 7.22334 29.3273 7.22334 30.453V31.814C7.22334 32.9397 8.44449 33.8555 9.94533 33.8555H11.76C13.2608 33.8555 14.482 32.9397 14.482 31.814V30.453C14.482 29.3273 13.2608 28.4115 11.76 28.4115ZM12.6673 31.814C12.6673 32.1892 12.2603 32.4945 11.76 32.4945H9.94533C9.44505 32.4945 9.038 32.1892 9.038 31.814V30.453C9.038 30.0778 9.44505 29.7725 9.94533 29.7725H11.76C12.2603 29.7725 12.6673 30.0778 12.6673 30.453V31.814ZM25.157 11.3991H18.9192C18.4181 11.3991 18.0118 11.0944 18.0118 10.7186C18.0118 10.3428 18.4181 10.0381 18.9192 10.0381H25.157C25.6581 10.0381 26.0644 10.3428 26.0644 10.7186C26.0644 11.0944 25.6581 11.3991 25.157 11.3991ZM22.5485 21.6065H18.9192C18.4181 21.6065 18.0118 21.3018 18.0118 20.926C18.0118 20.5502 18.4181 20.2455 18.9192 20.2455H22.5485C23.0495 20.2455 23.4558 20.5502 23.4558 20.926C23.4558 21.3018 23.0495 21.6065 22.5485 21.6065ZM21.1875 30.453C21.6885 30.453 22.0948 30.7577 22.0948 31.1335C22.0948 31.5093 21.6885 31.814 21.1875 31.814H18.9192C18.4181 31.814 18.0118 31.5093 18.0118 31.1335C18.0118 30.7577 18.4181 30.453 18.9192 30.453H21.1875Z" fill="#00AC4E"/>
</svg>
