<svg width="51" height="41" viewBox="0 0 51 41" fill="none" xmlns="http://www.w3.org/2000/svg">
<path d="M50.1362 31.8596L48.5489 20.9247C48.348 19.5409 46.7969 18.4973 44.9408 18.4973H43.7845V16.5072C43.7845 13.8781 40.9326 11.7392 37.4272 11.7392C33.9217 11.7392 31.0698 13.8782 31.0698 16.5072V18.4972H29.9135C28.0576 18.4972 26.5064 19.5408 26.3054 20.9247L24.7181 31.8596C24.4845 33.4693 26.1685 34.8761 28.3262 34.8761H46.5282C48.6835 34.8762 50.3701 33.4713 50.1362 31.8596ZM46.5283 33.5152H28.3264C27.2439 33.5152 26.4052 32.8128 26.5224 32.0069L28.1096 21.0721C28.2101 20.3802 28.9856 19.8583 29.9136 19.8583H31.0699V21.5758C31.0699 21.9516 31.4762 22.2563 31.9772 22.2563C32.4783 22.2563 32.8846 21.9516 32.8846 21.5758V16.5073C32.8846 14.6287 34.9224 13.1003 37.4273 13.1003C39.9321 13.1003 41.97 14.6287 41.97 16.5073V18.4973H36.2269C35.7259 18.4973 35.3196 18.802 35.3196 19.1778C35.3196 19.5536 35.7259 19.8583 36.2269 19.8583H41.97V21.5758C41.97 21.9516 42.3762 22.2563 42.8773 22.2563C43.3784 22.2563 43.7846 21.9516 43.7846 21.5758V19.8583H44.9409C45.869 19.8583 46.6445 20.3801 46.7449 21.072L48.3322 32.0068C48.4494 32.8139 47.6093 33.5152 46.5283 33.5152ZM40.603 37.4281C40.1019 37.4281 39.6956 37.7328 39.6956 38.1086C39.6956 38.859 38.8815 39.4696 37.881 39.4696H3.62932C2.62876 39.4696 1.81466 38.859 1.81466 38.1086V2.72273C1.81466 1.97231 2.62876 1.36173 3.62932 1.36173H29.1479V6.55052C29.1479 8.05144 30.776 9.27251 32.7773 9.27251H40.603C41.4096 9.27251 41.8146 8.53834 41.2446 8.11082C29.8857 -0.408323 30.621 0.0716826 30.2328 0.0139254C30.1074 -0.00470322 31.5525 0.000740759 3.62932 0.000740759C1.62809 0.000740759 0 1.22181 0 2.72273V38.1086C0 39.6095 1.62809 40.8306 3.62932 40.8306H37.881C39.8822 40.8306 41.5103 39.6095 41.5103 38.1086C41.5103 37.7327 41.104 37.4281 40.603 37.4281ZM32.7773 7.91152C31.7767 7.91152 30.9626 7.30094 30.9626 6.55052V2.32404L38.4126 7.91152H32.7773ZM14.4169 10.0384C14.4198 8.90845 13.2016 7.99292 11.6949 7.99292H9.86369C8.36285 7.99292 7.1417 8.9087 7.1417 10.0344V11.4026C7.1417 12.5283 8.36285 13.4441 9.86369 13.4441H11.6914C13.1895 13.4441 14.4107 12.53 14.4134 11.4065L14.4169 10.0384ZM12.5987 11.404C12.5978 11.7785 12.1908 12.0831 11.6914 12.0831H9.86369C9.36341 12.0831 8.95636 11.7778 8.95636 11.4026V10.0344C8.95636 9.6592 9.36341 9.35392 9.86369 9.35392H11.6949C12.1972 9.35392 12.6031 9.65903 12.6022 10.0357L12.5987 11.404ZM14.4038 20.2455C14.4038 19.1198 13.1827 18.204 11.6819 18.204H9.8672C8.36637 18.204 7.14522 19.1198 7.14522 20.2455V21.6065C7.14522 22.7322 8.36637 23.648 9.8672 23.648H11.6819C13.1827 23.648 14.4038 22.7322 14.4038 21.6065V20.2455ZM12.5892 21.6065C12.5892 21.9817 12.1821 22.287 11.6819 22.287H9.8672C9.36693 22.287 8.95988 21.9817 8.95988 21.6065V20.2455C8.95988 19.8703 9.36693 19.565 9.8672 19.565H11.6819C12.1821 19.565 12.5892 19.8703 12.5892 20.2455V21.6065ZM11.6819 28.4115H9.8672C8.36637 28.4115 7.14522 29.3273 7.14522 30.453V31.814C7.14522 32.9397 8.36637 33.8555 9.8672 33.8555H11.6819C13.1827 33.8555 14.4038 32.9397 14.4038 31.814V30.453C14.4038 29.3273 13.1827 28.4115 11.6819 28.4115ZM12.5892 31.814C12.5892 32.1892 12.1821 32.4945 11.6819 32.4945H9.8672C9.36693 32.4945 8.95988 32.1892 8.95988 31.814V30.453C8.95988 30.0778 9.36693 29.7725 9.8672 29.7725H11.6819C12.1821 29.7725 12.5892 30.0778 12.5892 30.453V31.814ZM25.0789 11.3991H18.841C18.34 11.3991 17.9337 11.0944 17.9337 10.7186C17.9337 10.3428 18.34 10.0381 18.841 10.0381H25.0789C25.58 10.0381 25.9862 10.3428 25.9862 10.7186C25.9862 11.0944 25.58 11.3991 25.0789 11.3991ZM22.4703 21.6065H18.841C18.34 21.6065 17.9337 21.3018 17.9337 20.926C17.9337 20.5502 18.34 20.2455 18.841 20.2455H22.4703C22.9714 20.2455 23.3777 20.5502 23.3777 20.926C23.3777 21.3018 22.9714 21.6065 22.4703 21.6065ZM21.1094 30.453C21.6104 30.453 22.0167 30.7577 22.0167 31.1335C22.0167 31.5093 21.6104 31.814 21.1094 31.814H18.841C18.34 31.814 17.9337 31.5093 17.9337 31.1335C17.9337 30.7577 18.34 30.453 18.841 30.453H21.1094Z" fill="white"/>
</svg>
