<svg width="55" height="38" viewBox="0 0 55 38" fill="none" xmlns="http://www.w3.org/2000/svg">
<path d="M50.8377 0.854675H3.65575C1.65449 0.854675 0.0263672 2.07576 0.0263672 3.57671V28.0751C0.0263672 29.576 1.65449 30.7971 3.65575 30.7971H23.1637V33.4341C23.1637 33.8099 23.57 34.1146 24.071 34.1146C24.5721 34.1146 24.9784 33.8099 24.9784 33.4341V30.9672H29.5151V33.4341C29.5151 33.8099 29.9214 34.1146 30.4225 34.1146C30.9235 34.1146 31.3298 33.8099 31.3298 33.4341V30.7971H50.8377C52.839 30.7971 54.4671 29.576 54.4671 28.0751V3.57671C54.4671 2.07585 52.839 0.854675 50.8377 0.854675V0.854675ZM52.6524 28.0751C52.6524 28.8255 51.8383 29.4361 50.8377 29.4361H3.65575C2.65518 29.4361 1.84106 28.8255 1.84106 28.0751V3.57671C1.84106 2.82628 2.65518 2.21569 3.65575 2.21569H50.8377C51.8383 2.21569 52.6524 2.82628 52.6524 3.57671V28.0751ZM40.816 37.294C40.6674 37.6522 40.1596 37.8534 39.68 37.7416C32.0538 35.9621 22.3907 35.9737 14.8135 37.7416C14.335 37.8531 13.8264 37.6529 13.6775 37.294C13.5286 36.935 13.7958 36.5537 14.2743 36.442C22.2047 34.5916 32.2442 34.5812 40.2192 36.442C40.6977 36.5537 40.9648 36.9351 40.816 37.294V37.294ZM36.7066 13.5515C36.5468 12.4512 35.3136 11.6216 33.8379 11.6216H32.7133V10.0458C32.7133 7.76627 30.2405 5.91171 27.2012 5.91171C24.1618 5.91171 21.6893 7.76619 21.6893 10.0457V11.6215H20.5646C19.0889 11.6215 17.8557 12.4512 17.6959 13.5515L16.2849 23.2725C16.0991 24.5524 17.438 25.6711 19.1536 25.6711H35.2491C36.9657 25.6711 38.3034 24.5516 38.1178 23.2725L36.7066 13.5515ZM35.2491 24.3101H19.1536C18.5148 24.3101 18.0197 23.8955 18.0889 23.4199L19.4999 13.6989C19.5591 13.2905 20.017 12.9825 20.5646 12.9825H21.6893V14.3281C21.6893 14.7039 22.0955 15.0086 22.5966 15.0086C23.0977 15.0086 23.5039 14.7039 23.5039 14.3281V10.0456C23.5039 8.51653 25.1626 7.27256 27.2013 7.27256C29.2401 7.27256 30.8987 8.51653 30.8987 10.0456V11.6214H26.1872C25.6861 11.6214 25.2798 11.9261 25.2798 12.302C25.2798 12.6778 25.6861 12.9825 26.1872 12.9825H30.8987V14.328C30.8987 14.7038 31.305 15.0085 31.806 15.0085C32.3071 15.0085 32.7134 14.7038 32.7134 14.328V12.9825H33.838C34.3856 12.9825 34.8434 13.2904 34.9027 13.6988L36.3137 23.4198C36.3829 23.896 35.8871 24.3101 35.2491 24.3101V24.3101Z" fill="#00AC4E"/>
</svg>
