<svg width="35" height="35" viewBox="0 0 35 35" fill="none" xmlns="http://www.w3.org/2000/svg">
<path fill-rule="evenodd" clip-rule="evenodd" d="M20.2763 10.7471C20.2763 9.18206 19.0035 7.90931 17.4385 7.90931C15.8734 7.90931 14.6007 9.18206 14.6007 10.7471C14.6007 12.3122 15.8734 13.5849 17.4385 13.5849C19.0035 13.5849 20.2763 12.3122 20.2763 10.7471ZM23.1141 10.7471C23.1141 13.8772 20.5686 16.4228 17.4385 16.4228C14.3084 16.4228 11.7629 13.8772 11.7629 10.7471C11.7629 7.61704 14.3084 5.07153 17.4385 5.07153C20.5686 5.07153 23.1141 7.61704 23.1141 10.7471ZM7.50604 29.1927C7.50604 23.7157 11.9628 19.2604 17.4384 19.2604C22.9139 19.2604 27.3707 23.7157 27.3707 29.1927C27.3707 29.9759 26.7364 30.6116 25.9518 30.6116C25.1671 30.6116 24.5329 29.9759 24.5329 29.1927C24.5329 25.2808 21.3503 22.0982 17.4384 22.0982C13.5264 22.0982 10.3438 25.2808 10.3438 29.1927C10.3438 29.9759 9.7096 30.6116 8.92494 30.6116C8.14029 30.6116 7.50604 29.9759 7.50604 29.1927Z" fill="black"/>
<mask id="mask0_174_2665" style="mask-type:luminance" maskUnits="userSpaceOnUse" x="7" y="5" width="21" height="26">
<path fill-rule="evenodd" clip-rule="evenodd" d="M20.2763 10.7471C20.2763 9.18206 19.0035 7.90931 17.4385 7.90931C15.8734 7.90931 14.6007 9.18206 14.6007 10.7471C14.6007 12.3122 15.8734 13.5849 17.4385 13.5849C19.0035 13.5849 20.2763 12.3122 20.2763 10.7471ZM23.1141 10.7471C23.1141 13.8772 20.5686 16.4228 17.4385 16.4228C14.3084 16.4228 11.7629 13.8772 11.7629 10.7471C11.7629 7.61704 14.3084 5.07153 17.4385 5.07153C20.5686 5.07153 23.1141 7.61704 23.1141 10.7471ZM7.50604 29.1927C7.50604 23.7157 11.9628 19.2604 17.4384 19.2604C22.9139 19.2604 27.3707 23.7157 27.3707 29.1927C27.3707 29.9759 26.7364 30.6116 25.9518 30.6116C25.1671 30.6116 24.5329 29.9759 24.5329 29.1927C24.5329 25.2808 21.3503 22.0982 17.4384 22.0982C13.5264 22.0982 10.3438 25.2808 10.3438 29.1927C10.3438 29.9759 9.7096 30.6116 8.92494 30.6116C8.14029 30.6116 7.50604 29.9759 7.50604 29.1927Z" fill="white"/>
</mask>
<g mask="url(#mask0_174_2665)">
<rect x="0.411591" y="0.814941" width="34.0537" height="34.0537" fill="#C6C6C6"/>
</g>
</svg>
