<svg width="30" height="30" viewBox="0 0 30 30" fill="none" xmlns="http://www.w3.org/2000/svg">
<path fill-rule="evenodd" clip-rule="evenodd" d="M17.5001 8.74997C17.5001 7.37122 16.3788 6.24997 15.0001 6.24997C13.6213 6.24997 12.5001 7.37122 12.5001 8.74997C12.5001 10.1287 13.6213 11.25 15.0001 11.25C16.3788 11.25 17.5001 10.1287 17.5001 8.74997ZM20 8.74994C20 11.5074 17.7575 13.7499 15 13.7499C12.2425 13.7499 9.99998 11.5074 9.99998 8.74994C9.99998 5.99244 12.2425 3.74994 15 3.74994C17.7575 3.74994 20 5.99244 20 8.74994ZM6.25 25C6.25 20.175 10.1763 16.25 15 16.25C19.8238 16.25 23.75 20.175 23.75 25C23.75 25.69 23.1912 26.25 22.5 26.25C21.8088 26.25 21.25 25.69 21.25 25C21.25 21.5537 18.4462 18.75 15 18.75C11.5537 18.75 8.75 21.5537 8.75 25C8.75 25.69 8.19125 26.25 7.5 26.25C6.80875 26.25 6.25 25.69 6.25 25Z" fill="black"/>
<mask id="mask0_48062_236" style="mask-type:luminance" maskUnits="userSpaceOnUse" x="6" y="3" width="18" height="24">
<path fill-rule="evenodd" clip-rule="evenodd" d="M17.5001 8.74997C17.5001 7.37122 16.3788 6.24997 15.0001 6.24997C13.6213 6.24997 12.5001 7.37122 12.5001 8.74997C12.5001 10.1287 13.6213 11.25 15.0001 11.25C16.3788 11.25 17.5001 10.1287 17.5001 8.74997ZM20 8.74994C20 11.5074 17.7575 13.7499 15 13.7499C12.2425 13.7499 9.99998 11.5074 9.99998 8.74994C9.99998 5.99244 12.2425 3.74994 15 3.74994C17.7575 3.74994 20 5.99244 20 8.74994ZM6.25 25C6.25 20.175 10.1763 16.25 15 16.25C19.8238 16.25 23.75 20.175 23.75 25C23.75 25.69 23.1912 26.25 22.5 26.25C21.8088 26.25 21.25 25.69 21.25 25C21.25 21.5537 18.4462 18.75 15 18.75C11.5537 18.75 8.75 21.5537 8.75 25C8.75 25.69 8.19125 26.25 7.5 26.25C6.80875 26.25 6.25 25.69 6.25 25Z" fill="white"/>
</mask>
<g mask="url(#mask0_48062_236)">
<rect width="30" height="30" fill="white"/>
</g>
</svg>
