<svg width="55" height="37" viewBox="0 0 55 37" fill="none" xmlns="http://www.w3.org/2000/svg">
<path d="M50.8114 0H3.62938C1.62812 0 0 1.22109 0 2.72204V27.2204C0 28.7213 1.62812 29.9424 3.62938 29.9424H23.1373V32.5794C23.1373 32.9552 23.5436 33.2599 24.0447 33.2599C24.5458 33.2599 24.952 32.9552 24.952 32.5794V30.1125H29.4887V32.5794C29.4887 32.9552 29.895 33.2599 30.3961 33.2599C30.8972 33.2599 31.3034 32.9552 31.3034 32.5794V29.9424H50.8114C52.8126 29.9424 54.4408 28.7213 54.4408 27.2204V2.72204C54.4408 1.22117 52.8126 0 50.8114 0ZM52.6261 27.2204C52.6261 27.9708 51.812 28.5814 50.8114 28.5814H3.62938C2.62881 28.5814 1.81469 27.9708 1.81469 27.2204V2.72204C1.81469 1.97161 2.62881 1.36102 3.62938 1.36102H50.8114C51.812 1.36102 52.6261 1.97161 52.6261 2.72204V27.2204ZM40.7896 36.4393C40.641 36.7975 40.1333 36.9987 39.6536 36.8869C32.0274 35.1074 22.3644 35.1191 14.7871 36.8869C14.3086 36.9985 13.8001 36.7982 13.6511 36.4393C13.5022 36.0804 13.7694 35.699 14.2479 35.5873C22.1784 33.7369 32.2178 33.7265 40.1928 35.5873C40.6713 35.699 40.9384 36.0804 40.7896 36.4393ZM36.6803 12.6969C36.5205 11.5966 35.2873 10.7669 33.8116 10.7669H32.6869V9.19113C32.6869 6.91159 30.2142 5.05704 27.1748 5.05704C24.1354 5.05704 21.6629 6.91151 21.6629 9.19105V10.7669H20.5382C19.0625 10.7669 17.8293 11.5966 17.6695 12.6968L16.2585 22.4179C16.0727 23.6977 17.4116 24.8164 19.1272 24.8164H35.2227C36.9393 24.8164 38.2771 23.697 38.0914 22.4179L36.6803 12.6969ZM35.2227 23.4554H19.1272C18.4884 23.4554 17.9934 23.0409 18.0625 22.5652L19.4736 12.8442C19.5328 12.4358 19.9906 12.1279 20.5382 12.1279H21.6629V13.4734C21.6629 13.8492 22.0692 14.1539 22.5702 14.1539C23.0713 14.1539 23.4776 13.8492 23.4776 13.4734V9.19096C23.4776 7.66186 25.1362 6.41788 27.1749 6.41788C29.2137 6.41788 30.8723 7.66186 30.8723 9.19096V10.7668H26.1608C25.6597 10.7668 25.2535 11.0715 25.2535 11.4473C25.2535 11.8231 25.6597 12.1278 26.1608 12.1278H30.8723V13.4733C30.8723 13.8491 31.2786 14.1538 31.7797 14.1538C32.2808 14.1538 32.687 13.8491 32.687 13.4733V12.1278H33.8117C34.3593 12.1278 34.817 12.4357 34.8763 12.8441L36.2874 22.5651C36.3566 23.0413 35.8607 23.4554 35.2227 23.4554Z" fill="white"/>
</svg>
