<svg width="15" height="15" viewBox="0 0 15 15" fill="none" xmlns="http://www.w3.org/2000/svg">
<path fill-rule="evenodd" clip-rule="evenodd" d="M3.45 1.50003C2.3745 1.50003 1.5 2.37453 1.5 3.45003C1.5 8.99103 6.00825 13.5 11.55 13.5C12.6248 13.5 13.5 12.6255 13.5 11.55C13.5 11.4668 13.4948 11.385 13.4843 11.304L10.0193 10.509C9.95025 10.641 9.8745 10.7843 9.8055 10.9178C9.4635 11.5703 9.216 12.0443 8.5845 11.79C6.105 10.92 4.08075 8.89503 3.1995 6.38553C2.93175 5.79678 3.44175 5.52978 4.08825 5.19228C4.2195 5.12328 4.36125 5.04903 4.491 4.98153L3.696 1.51578C3.61275 1.50528 3.53175 1.50003 3.45 1.50003ZM11.55 15C5.181 15 0 9.819 0 3.45C0 1.54725 1.54725 0 3.45 0C3.645 0 3.83775 0.0165 4.0245 0.04875C4.20675 0.078 4.38975 0.1245 4.56825 0.186C4.812 0.27075 4.99575 0.4755 5.0535 0.7275L6.08025 5.2005C6.13725 5.4465 6.066 5.7045 5.8905 5.8875C5.7885 5.994 5.78625 5.99625 4.85625 6.483C5.60925 8.1135 6.918 9.41775 8.5155 10.1453C9.003 9.2145 9.006 9.2115 9.1125 9.1095C9.2955 8.934 9.555 8.86575 9.7995 8.91975L14.2733 9.9465C14.5245 10.0043 14.7292 10.1873 14.8132 10.431C14.8747 10.608 14.9213 10.791 14.952 10.9792C14.9835 11.1645 15 11.3565 15 11.55C15 13.4527 13.452 15 11.55 15Z" fill="#C6C6C6"/>
</svg>
