<svg width="43" height="40" viewBox="0 0 43 40" fill="none" xmlns="http://www.w3.org/2000/svg">
<path d="M13.0975 20.1418C19.7901 20.1418 25.2184 15.6334 25.2184 10.0751C25.2184 4.5167 19.7901 0 13.0975 0C6.40489 0 0.976562 4.50837 0.976562 10.0667C0.976562 15.6251 6.40489 20.1418 13.0975 20.1418ZM8.86319 14.0501C8.97357 13.7168 9.08394 13.3918 9.20435 13.0584C9.34482 12.6751 9.47526 12.6334 9.89668 12.8168C10.6191 13.1251 11.3817 13.3001 12.1844 13.3834C12.6961 13.4334 13.2079 13.3918 13.6795 13.2168C14.5725 12.8918 14.7129 12.0334 13.9604 11.5168C13.6995 11.3418 13.4085 11.2084 13.1075 11.1001C12.3249 10.8167 11.5121 10.6001 10.7696 10.2334C9.5756 9.64174 8.81302 8.81673 8.90333 7.60839C9.00367 6.24171 9.93682 5.38337 11.4419 4.93337C12.064 4.7417 12.064 4.75004 12.074 4.20836C12.074 4.02503 12.074 3.8417 12.074 3.65836C12.0841 3.25002 12.1744 3.18336 12.656 3.16669C12.8065 3.16669 12.957 3.16669 13.1075 3.16669C14.1511 3.16669 14.151 3.16669 14.151 4.03336C14.151 4.6417 14.1511 4.65003 14.8835 4.7417C15.4454 4.8167 15.9772 4.95004 16.499 5.14171C16.79 5.25004 16.8903 5.41671 16.81 5.66671C16.6796 6.04171 16.5592 6.41671 16.4087 6.78338C16.2682 7.13339 16.1378 7.18339 15.7364 7.02505C14.9237 6.70005 14.0708 6.55838 13.1677 6.60005C12.9269 6.60838 12.7062 6.63338 12.4854 6.71672C11.7128 7.00005 11.5824 7.70839 12.2446 8.15006C12.5757 8.37506 12.957 8.5334 13.3584 8.66673C14.0407 8.90007 14.733 9.1334 15.3953 9.4334C17.4723 10.3917 18.0342 12.5584 16.5692 14.0334C16.0374 14.5668 15.3551 14.9251 14.5424 15.1084C14.1912 15.1918 14.0306 15.3418 14.0507 15.6418C14.0708 15.9418 14.0507 16.2335 14.0507 16.5335C14.0507 16.8001 13.8902 16.9418 13.5691 16.9501C13.1878 16.9585 12.7965 16.9585 12.4152 16.9501C12.074 16.9418 11.9135 16.7835 11.9135 16.5085C11.9135 16.2918 11.9135 16.0751 11.9035 15.8585C11.8934 15.3834 11.8834 15.3584 11.3215 15.2834C10.6091 15.1918 9.91675 15.0584 9.26455 14.7918C8.77289 14.6001 8.72272 14.4918 8.86319 14.0501Z" fill="#00AC4E"/>
<path d="M40.2898 20.9832H38.875C37.9419 18.6082 36.1157 16.4998 33.6775 14.8665C33.6775 14.7915 33.6574 14.7082 33.6373 14.6332C33.1256 13.1415 33.7577 11.7831 34.4902 10.8081C35.0019 10.1248 34.3397 9.24978 33.3764 9.34978C31.2192 9.57478 29.7341 10.2331 28.7107 10.9748C28.0083 11.4831 27.5066 12.1665 27.2859 12.9248C25.7407 18.2415 19.9712 22.1999 13.098 22.1999C9.75668 22.1999 6.68631 21.2665 4.22801 19.6999C3.37513 21.2332 2.91357 22.9082 2.91357 24.6666C2.91357 25.6166 3.05405 26.5416 3.31493 27.4332C3.31493 27.4332 3.31493 27.4499 3.32496 27.4749C3.59588 28.3999 4.00727 29.2916 4.52903 30.1333C5.22137 31.3749 6.22476 32.825 7.60943 34C9.60617 35.7083 9.94733 37.825 9.9975 38.7417V39.1333C9.9975 39.15 9.9975 39.1667 9.9975 39.1833C9.9975 39.1917 9.9975 39.1917 9.9975 39.1917C10.0376 39.6417 10.4892 40 11.041 40H17.3824C17.9544 40 18.426 39.6167 18.426 39.1333V37.8333C19.3491 37.9333 20.2923 37.9917 21.2455 37.9917C21.998 37.9917 22.7305 37.9583 23.463 37.8917V39.1333C23.463 39.6083 23.9245 40 24.5065 40H30.868C31.4399 40 31.9115 39.6167 31.9115 39.1333V37.8333C31.9215 37.4 32.1021 35.675 34.0688 34.2C34.139 34.15 34.2093 34.1 34.2795 34.05C34.2996 34.0333 34.3196 34.025 34.3397 34.0083C36.5271 32.3916 38.1425 30.3749 38.9753 28.1249H40.3099C41.3734 28.1249 42.2364 27.4082 42.2364 26.5249V22.5832C42.2163 21.6999 41.3534 20.9832 40.2898 20.9832ZM32.353 21.2665C31.48 21.2665 30.7777 20.6832 30.7777 19.9582C30.7777 19.2332 31.48 18.6498 32.353 18.6498C33.2259 18.6498 33.9283 19.2332 33.9283 19.9582C33.9283 20.6832 33.2259 21.2665 32.353 21.2665Z" fill="#00AC4E"/>
</svg>
