<svg width="33" height="33" viewBox="0 0 33 33" fill="none" xmlns="http://www.w3.org/2000/svg">
<path fill-rule="evenodd" clip-rule="evenodd" d="M21.7646 20.4744L17.8525 16.5403L21.7866 12.6281C22.1492 12.2676 22.1501 11.6824 21.7902 11.3204C21.4303 10.9585 20.8451 10.9562 20.4825 11.3168L16.5484 15.2289L12.6363 11.2948C12.2764 10.9329 11.6912 10.9306 11.3286 11.2911C10.966 11.6517 10.965 12.2369 11.3249 12.5988L15.237 16.533L11.3029 20.4451C10.9404 20.8057 10.9394 21.3909 11.2993 21.7528C11.6592 22.1147 12.2444 22.117 12.607 21.7565L16.5411 17.8443L20.4532 21.7784C20.8132 22.1404 21.3984 22.1426 21.7609 21.7821C22.1235 21.4215 22.1245 20.8363 21.7646 20.4744Z" fill="black"/>
<mask id="mask0_174_2678" style="mask-type:luminance" maskUnits="userSpaceOnUse" x="11" y="11" width="12" height="12">
<path fill-rule="evenodd" clip-rule="evenodd" d="M21.7646 20.4744L17.8525 16.5403L21.7866 12.6281C22.1492 12.2676 22.1501 11.6824 21.7902 11.3204C21.4303 10.9585 20.8451 10.9562 20.4825 11.3168L16.5484 15.2289L12.6363 11.2948C12.2764 10.9329 11.6912 10.9306 11.3286 11.2911C10.966 11.6517 10.965 12.2369 11.3249 12.5988L15.237 16.533L11.3029 20.4451C10.9404 20.8057 10.9394 21.3909 11.2993 21.7528C11.6592 22.1147 12.2444 22.117 12.607 21.7565L16.5411 17.8443L20.4532 21.7784C20.8132 22.1404 21.3984 22.1426 21.7609 21.7821C22.1235 21.4215 22.1245 20.8363 21.7646 20.4744Z" fill="white"/>
</mask>
<g mask="url(#mask0_174_2678)">
<rect x="16.5889" y="0.843994" width="22.1926" height="22.1926" transform="rotate(45.1603 16.5889 0.843994)" fill="#00AC4E"/>
</g>
</svg>
