<svg width="13" height="13" viewBox="0 0 13 13" fill="none" xmlns="http://www.w3.org/2000/svg">
<path fill-rule="evenodd" clip-rule="evenodd" d="M9.13482 11.0661C9.05533 11.0661 8.97534 11.0475 8.90189 11.0092L6.33667 9.66903L3.77195 11.0092C3.60191 11.0973 3.39665 11.0822 3.24271 10.9695C3.08776 10.8568 3.01079 10.6661 3.04349 10.4775L3.53198 7.64613L1.45928 5.64135C1.32144 5.50803 1.27163 5.3078 1.33049 5.12468C1.38935 4.94256 1.54682 4.80925 1.73698 4.78208L4.60456 4.36553L5.88641 1.78672C6.05645 1.44463 6.61739 1.44463 6.78743 1.78672L8.06929 4.36553L10.9369 4.78208C11.127 4.80925 11.2845 4.94256 11.3434 5.12468C11.4022 5.3078 11.3524 5.50803 11.2146 5.64135L9.14186 7.64613L9.63035 10.4775C9.66305 10.6661 9.58558 10.8568 9.43113 10.9695C9.3436 11.0339 9.23946 11.0661 9.13482 11.0661Z" fill="black"/>
<mask id="mask0_174_80" style="mask-type:luminance" maskUnits="userSpaceOnUse" x="1" y="1" width="11" height="11">
<path fill-rule="evenodd" clip-rule="evenodd" d="M9.13482 11.0661C9.05533 11.0661 8.97534 11.0475 8.90189 11.0092L6.33667 9.66903L3.77195 11.0092C3.60191 11.0973 3.39665 11.0822 3.24271 10.9695C3.08776 10.8568 3.01079 10.6661 3.04349 10.4775L3.53198 7.64613L1.45928 5.64135C1.32144 5.50803 1.27163 5.3078 1.33049 5.12468C1.38935 4.94256 1.54682 4.80925 1.73698 4.78208L4.60456 4.36553L5.88641 1.78672C6.05645 1.44463 6.61739 1.44463 6.78743 1.78672L8.06929 4.36553L10.9369 4.78208C11.127 4.80925 11.2845 4.94256 11.3434 5.12468C11.4022 5.3078 11.3524 5.50803 11.2146 5.64135L9.14186 7.64613L9.63035 10.4775C9.66305 10.6661 9.58558 10.8568 9.43113 10.9695C9.3436 11.0339 9.23946 11.0661 9.13482 11.0661Z" fill="white"/>
</mask>
<g mask="url(#mask0_174_80)">
<rect x="0.299805" y="0.500854" width="12.074" height="12.074" fill="#EBEBEB"/>
</g>
</svg>
