<svg width="22" height="17" viewBox="0 0 22 17" fill="none" xmlns="http://www.w3.org/2000/svg">
<path d="M20.7731 7.59717H1.39052C0.855298 7.59717 0.421387 7.9317 0.421387 8.34434C0.421387 11.2964 2.45094 13.8896 5.49039 15.3391C5.35096 15.4685 5.26703 15.6347 5.26703 15.8161C5.26703 16.2287 5.70095 16.5633 6.23616 16.5633H15.9275C16.4627 16.5633 16.8966 16.2287 16.8966 15.8161C16.8966 15.6347 16.8127 15.4685 16.6732 15.3391C19.7127 13.8896 21.7422 11.2964 21.7422 8.34434C21.7422 7.9317 21.3083 7.59717 20.7731 7.59717Z" fill="#333333"/>
<path d="M18.4118 8.77783H4.12824C3.73382 8.77783 3.41406 9.01458 3.41406 9.3066C3.41406 11.3957 4.90969 13.2309 7.14955 14.2566C7.0468 14.3482 6.98495 14.4659 6.98495 14.5942C6.98495 14.8863 7.30472 15.123 7.69913 15.123H14.8409C15.2353 15.123 15.5551 14.8863 15.5551 14.5942C15.5551 14.4659 15.4932 14.3482 15.3905 14.2566C17.6304 13.2309 19.126 11.3957 19.126 9.3066C19.126 9.01458 18.8062 8.77783 18.4118 8.77783Z" fill="white"/>
<path d="M7.24472 0.344342C6.86631 0.0524954 6.25259 0.0525951 5.87411 0.344292C5.34529 0.752051 4.6209 1.31044 4.62109 2.36695C4.6209 3.4236 5.34516 3.98194 5.87405 4.3896C6.34925 4.75602 6.55935 4.93569 6.55935 5.3557C6.55935 5.76834 6.99326 6.10287 7.52848 6.10287C8.0637 6.10287 8.49761 5.76834 8.49761 5.3557C8.49761 4.29894 7.77335 3.7406 7.24446 3.33295C6.76933 2.96663 6.55929 2.78701 6.55935 2.36695C6.55929 1.94703 6.7694 1.76736 7.24466 1.40095C7.6232 1.1092 7.6232 0.636139 7.24472 0.344342Z" fill="#333333"/>
<path d="M11.7672 0.344342C11.3888 0.0524954 10.7751 0.0525951 10.3966 0.344292C9.86775 0.752001 9.14343 1.31039 9.14355 2.36695C9.14336 3.4236 9.86762 3.98194 10.3965 4.3896C10.8718 4.75602 11.0819 4.93569 11.0819 5.3557C11.0819 5.76834 11.5158 6.10287 12.051 6.10287C12.5862 6.10287 13.0201 5.76834 13.0201 5.3557C13.0201 4.29894 12.2959 3.7406 11.7671 3.33295C11.2919 2.96663 11.0818 2.78701 11.0819 2.36695C11.0818 1.94703 11.2919 1.76736 11.7672 1.40095C12.1457 1.1092 12.1457 0.636139 11.7672 0.344342Z" fill="#333333"/>
<path d="M16.2897 0.344342C15.9113 0.0524954 15.2976 0.0525951 14.9191 0.344292C14.3902 0.752001 13.6659 1.31039 13.666 2.36695C13.6658 3.4236 14.3901 3.98194 14.919 4.3896C15.3942 4.75602 15.6043 4.93569 15.6043 5.3557C15.6043 5.76834 16.0383 6.10287 16.5735 6.10287C17.1087 6.10287 17.5426 5.76834 17.5426 5.3557C17.5426 4.29894 16.8183 3.7406 16.2895 3.33295C15.8143 2.96663 15.6043 2.78701 15.6043 2.36695C15.6043 1.94703 15.8144 1.76736 16.2896 1.40095C16.6682 1.1092 16.6682 0.636139 16.2897 0.344342Z" fill="#333333"/>
</svg>
