<svg width="16" height="18" viewBox="0 0 16 18" fill="none" xmlns="http://www.w3.org/2000/svg">
<path d="M15.5754 10.5367C15.4909 10.4544 15.3624 10.4064 15.2263 10.4064H14.0952L14.3181 10.0917C14.6689 9.59614 14.6553 9.01045 14.2816 8.52491C13.9079 8.03936 13.2476 7.7495 12.5153 7.7495H12.257C12.3333 7.38974 12.2457 7.01733 11.994 6.69031C11.6203 6.2048 10.96 5.91494 10.2277 5.91494H9.70718C10.0336 5.60145 10.2296 5.20387 10.2296 4.77156C10.2296 3.88049 9.39894 3.13654 8.30341 2.97475C8.33462 2.45159 8.55857 1.16738 9.97395 0.653838C10.1964 0.573111 10.2919 0.368683 10.1872 0.197166C10.0825 0.0256832 9.8173 -0.0479778 9.59483 0.0327499C7.70318 0.719053 7.4386 2.33236 7.41049 2.97452C6.31417 3.1358 5.48279 3.87998 5.48279 4.77152C5.48279 5.2039 5.67876 5.60145 6.0052 5.9149H5.44364C4.71133 5.9149 4.05105 6.20477 3.67734 6.69028C3.42563 7.01729 3.33803 7.3897 3.41433 7.74946H3.15603C2.42372 7.74946 1.76348 8.03933 1.38973 8.52487C1.01603 9.01042 1.00241 9.59614 1.35329 10.0917L1.57615 10.4064H0.445175C0.309084 10.4064 0.180545 10.4544 0.0960447 10.5367C0.011632 10.6189 -0.0193572 10.7265 0.0119375 10.8286L1.8932 16.9648C1.94064 17.1197 2.11999 17.2291 2.32639 17.2291H13.345C13.5514 17.2291 13.7307 17.1197 13.7782 16.9648L15.6595 10.8286C15.6907 10.7265 15.6598 10.619 15.5754 10.5367ZM7.85621 3.62814C8.67397 3.62814 9.33924 4.14108 9.33924 4.77152C9.33924 5.40197 8.67393 5.9149 7.85621 5.9149C7.03844 5.9149 6.37318 5.40197 6.37318 4.77152C6.37318 4.14108 7.03844 3.62814 7.85621 3.62814ZM4.44299 7.04061C4.65472 6.76555 5.02878 6.60134 5.44368 6.60134H10.2278C10.5633 6.60134 10.8721 6.70885 11.0899 6.89548H8.79985C8.55403 6.89548 8.3547 7.04913 8.3547 7.23868C8.3547 7.42823 8.55403 7.58188 8.79985 7.58188H11.3874C11.3804 7.63828 11.3667 7.69438 11.3455 7.74946H4.32593C4.23537 7.51344 4.27487 7.25911 4.44299 7.04061ZM2.15547 8.87517C2.3672 8.60008 2.74121 8.4359 3.15611 8.4359H12.5153C12.9302 8.4359 13.3042 8.60011 13.516 8.87517C13.7277 9.15023 13.7354 9.48206 13.5367 9.76277L13.0809 10.4064H2.5905L2.31509 10.0174H5.1485C5.39432 10.0174 5.59365 9.86373 5.59365 9.67417C5.59365 9.48462 5.39432 9.33097 5.1485 9.33097H1.99149C1.99188 9.17379 2.04635 9.01694 2.15547 8.87517ZM2.67862 16.5427L1.00782 11.0928H4.7768L5.38476 16.5427H2.67862ZM9.3931 16.5427H6.27829L5.67034 11.0928H10.0011L9.3931 16.5427ZM12.9928 16.5427H10.2867L10.8946 11.0928H14.6636L12.9928 16.5427Z" fill="#333333"/>
<path d="M6.95353 9.33167H6.70736C6.46154 9.33167 6.26221 9.48531 6.26221 9.67487C6.26221 9.86442 6.46154 10.0181 6.70736 10.0181H6.95353C7.19935 10.0181 7.39868 9.86442 7.39868 9.67487C7.39868 9.48531 7.19935 9.33167 6.95353 9.33167Z" fill="#333333"/>
</svg>
