<svg width="13" height="19" viewBox="0 0 13 19" fill="none" xmlns="http://www.w3.org/2000/svg">
<path d="M12.2112 3.62032H10.5086L11.3511 0.514036C11.4136 0.283366 11.2218 0.0573029 10.9227 0.00912093C10.6236 -0.0391179 10.3304 0.108784 10.2677 0.339398L9.37788 3.62032H0.553428C0.239626 3.62032 -0.0116811 3.82153 0.000419376 4.06346L0.686165 17.7568C0.697675 17.9858 0.941825 18.167 1.23917 18.167H11.5255C11.8229 18.167 12.067 17.9858 12.0785 17.7568L12.7643 4.06346C12.7764 3.8217 12.5252 3.62032 12.2112 3.62032ZM1.22361 6.37125L1.12857 4.4736H9.1465L8.63186 6.37125H1.22361ZM10.9931 17.3136H1.7716L1.26633 7.22453H11.4984L10.9931 17.3136ZM11.5411 6.37125H9.76252L10.2772 4.4736H11.6361L11.5411 6.37125Z" fill="#333333"/>
<path d="M2.90012 14.0503C3.20551 14.0412 3.44354 13.843 3.43173 13.6075L3.21525 9.28431C3.20337 9.0488 2.94454 8.86569 2.64092 8.87445C2.33553 8.88355 2.0975 9.08179 2.10931 9.31724L2.32579 13.6405C2.33745 13.8724 2.58875 14.0586 2.90012 14.0503Z" fill="#333333"/>
<path d="M2.93145 14.6769C2.62606 14.686 2.38803 14.8843 2.39983 15.1197L2.41983 15.5179C2.43149 15.7498 2.68272 15.9361 2.99416 15.9278C3.29955 15.9187 3.53758 15.7204 3.52577 15.485L3.50578 15.0867C3.49397 14.8513 3.23544 14.6685 2.93145 14.6769Z" fill="#333333"/>
</svg>
