<svg width="23" height="10" viewBox="0 0 23 10" fill="none" xmlns="http://www.w3.org/2000/svg">
<path d="M21.7439 6.23011C21.1226 5.31611 20.3247 4.47888 19.3855 3.72895C19.2985 3.16477 19.0042 2.61594 18.4789 2.16766C17.6167 1.4338 16.4239 0.958288 15.1496 0.828412C15.1406 0.818626 15.136 0.806777 15.127 0.796991C14.6469 0.290743 13.9106 0.000976562 13.1064 0.000976562H9.47642C8.67217 0.000976562 7.93585 0.290743 7.45583 0.796991C7.44678 0.806777 7.44224 0.818626 7.4332 0.828412C6.15891 0.958288 4.96702 1.4338 4.10393 2.16838C3.57865 2.61597 3.28521 3.1648 3.19733 3.7283C2.25813 4.47892 1.46203 5.31404 0.860674 6.19873C0.260208 6.98217 0.27651 7.94855 0.902321 8.72152C1.4729 9.42536 2.54974 9.84154 3.63749 9.84154C4.01155 9.84154 4.3865 9.79267 4.74333 9.68931L8.18943 8.62657C8.62776 8.7334 9.08244 8.79903 9.54795 8.79903C9.63129 8.79903 9.71458 8.78368 9.79792 8.78017C10.1674 9.11393 10.7 9.31434 11.2986 9.31434C11.8945 9.31434 12.4253 9.11393 12.7921 8.78086C12.87 8.78364 12.9488 8.79831 13.0267 8.79831C13.4894 8.79831 13.9432 8.73127 14.3834 8.62375L17.8648 9.69628C18.2207 9.79683 18.5938 9.84501 18.9625 9.84501C20.0457 9.84501 21.1053 9.43165 21.6813 8.72152C22.3063 7.94855 22.3226 6.98214 21.7439 6.23011ZM8.48924 7.23282C8.39232 7.2014 8.30176 7.1637 8.21121 7.12458C8.11068 7.08128 8.01286 7.03382 7.92138 6.98004C7.86975 6.95072 7.81359 6.92489 7.76468 6.89275L7.41235 6.60996L5.48325 5.05914C5.42802 5.01446 5.38362 4.96487 5.33653 4.916C5.31297 4.89087 5.28308 4.86851 5.26135 4.84269C5.22874 4.80289 5.20612 4.75958 5.17801 4.71769C5.15267 4.67857 5.12185 4.64159 5.10104 4.60107C5.08202 4.56336 5.07116 4.52356 5.05668 4.48517C5.03766 4.4363 5.01503 4.38881 5.00323 4.33922C4.99508 4.3078 4.99508 4.27569 4.98964 4.24355C4.9806 4.18421 4.97062 4.12415 4.97062 4.0634C4.97245 3.71985 5.12821 3.37631 5.447 3.1054C5.86542 2.7486 6.40157 2.48325 6.99117 2.33174C7.00658 2.40227 7.03193 2.4714 7.05727 2.53981C7.06631 2.56635 7.06631 2.59359 7.07718 2.61941L9.038 7.36686C8.84606 7.34034 8.66584 7.28869 8.48924 7.23282ZM17.5932 4.24358C17.5877 4.27569 17.5877 4.30783 17.5796 4.33925C17.5678 4.38953 17.5451 4.43702 17.5261 4.48589C17.5107 4.52428 17.5008 4.56339 17.4818 4.6011C17.4591 4.64509 17.4265 4.68558 17.3984 4.72747C17.3721 4.76587 17.3522 4.80567 17.3215 4.842C17.2571 4.91882 17.1838 4.99214 17.0995 5.05917L14.8335 6.88093C14.6732 6.98777 14.4966 7.07225 14.3146 7.14697C14.2621 7.16792 14.2104 7.18955 14.157 7.20841C13.9614 7.27613 13.7594 7.33269 13.5493 7.36342L15.5055 2.61876C15.5164 2.59362 15.5155 2.56779 15.5246 2.54266C15.5508 2.47284 15.5762 2.40299 15.5916 2.33177C16.1803 2.48328 16.7173 2.74863 17.1358 3.10474C17.4545 3.37638 17.6103 3.71992 17.6121 4.06346C17.6122 4.12418 17.6022 4.18424 17.5932 4.24358Z" fill="#333333"/>
</svg>
