<svg width="24" height="18" viewBox="0 0 24 18" fill="none" xmlns="http://www.w3.org/2000/svg">
<path d="M19.8329 2.86925C17.6852 1.21343 14.8297 0.301514 11.7924 0.301514C8.75509 0.301514 5.89963 1.21343 3.75193 2.86925C1.60415 4.52508 0.421387 6.7266 0.421387 9.06832C0.421387 11.3985 1.5942 13.5923 3.72377 15.2455C3.8775 15.3649 4.12753 15.3655 4.28215 15.247C4.43682 15.1286 4.4377 14.9359 4.28406 14.8165C2.3024 13.278 1.21109 11.2366 1.21109 9.06832C1.21109 4.57001 5.95786 0.910359 11.7924 0.910359C17.627 0.910359 22.3737 4.57001 22.3737 9.06832C22.3737 13.5666 17.627 17.2263 11.7924 17.2263C9.36841 17.2263 7.08795 16.6115 5.19747 15.4484C5.02704 15.3436 4.77861 15.3651 4.6426 15.4964C4.50655 15.6279 4.53449 15.8194 4.70501 15.9243C6.73678 17.1744 9.18763 17.8352 11.7924 17.8352C14.8297 17.8352 17.6853 16.9232 19.833 15.2674C21.9807 13.6116 23.1635 11.41 23.1635 9.06835C23.1635 6.72667 21.9806 4.52508 19.8329 2.86925Z" fill="#333333"/>
<path d="M18.7235 6.96167C18.5272 6.57826 18.2759 6.20989 17.9764 5.86672C17.8546 5.7272 17.6093 5.69018 17.4284 5.78408C17.2475 5.87798 17.1994 6.06712 17.3212 6.2066C17.5889 6.5133 17.8136 6.8425 17.9889 7.18512C18.0502 7.30481 18.1989 7.37789 18.3563 7.37789C18.4045 7.37789 18.4536 7.37104 18.5012 7.35659C18.704 7.29484 18.8036 7.11807 18.7235 6.96167Z" fill="#333333"/>
<path d="M14.9015 13.961C14.8166 13.8061 14.5849 13.7338 14.384 13.7992C13.5633 14.0668 12.6914 14.2026 11.7923 14.2026C8.12061 14.2026 5.13346 11.8995 5.13346 9.06877C5.13346 8.58879 5.21923 8.11374 5.38837 7.65681C5.44825 7.49514 5.32672 7.32668 5.11707 7.28056C4.90715 7.23446 4.68883 7.32799 4.629 7.48973C4.43974 8.00101 4.34375 8.53229 4.34375 9.06874C4.34375 12.2353 7.68514 14.8114 11.7923 14.8114C12.7976 14.8114 13.7732 14.6595 14.6917 14.36C14.8925 14.2945 14.9866 14.1159 14.9015 13.961Z" fill="#333333"/>
<path d="M17.2253 3.22069C16.9982 2.91782 16.6355 2.79225 16.3823 2.72417C16.3121 2.70526 16.2363 2.70204 16.1638 2.71492L16.1334 2.72033C15.686 2.79951 15.2234 2.66509 14.9551 2.37778C14.9102 2.3297 14.848 2.29271 14.7763 2.27144C14.5305 2.19864 14.155 2.11505 13.7347 2.23025C12.9132 2.45548 12.2715 2.94673 11.9742 3.57804C11.9324 3.6667 11.8991 3.75638 11.8721 3.84666C11.7124 3.69146 11.5307 3.54711 11.3284 3.41606C11.2008 3.33346 11.0592 3.26692 10.9074 3.21836C10.452 3.07258 9.92516 3.11258 9.49804 3.32544L9.34351 3.40243C9.04786 3.54985 8.6688 3.54629 8.37781 3.39325L8.286 3.34496C7.74206 3.05888 7.03071 3.06487 6.51608 3.35979C6.49409 3.37243 6.47219 3.38561 6.45034 3.39948C6.11587 3.61232 5.83284 3.86511 5.60911 4.15086C5.49637 4.29479 5.55643 4.4819 5.74307 4.56878C5.92985 4.65563 6.17246 4.6094 6.28515 4.4655C6.46273 4.23873 6.6874 4.03805 6.95293 3.86912C6.96421 3.86193 6.97563 3.85508 6.98713 3.84847C7.23174 3.70827 7.57487 3.70803 7.84093 3.84796L7.93275 3.89624C8.48695 4.1877 9.20905 4.19452 9.77218 3.91374L9.92671 3.83676C10.1356 3.73265 10.389 3.71169 10.6044 3.7807C10.6829 3.80583 10.7536 3.83905 10.8204 3.88234C11.5599 4.36119 11.9516 5.06322 11.8953 5.80849C11.8067 6.98218 10.5433 7.94365 9.01912 7.99745C8.18304 8.027 7.39067 7.79865 6.78778 7.3546C6.1845 6.91026 5.85221 6.31145 5.85221 5.6685C5.85221 5.51494 5.87162 5.36146 5.91 5.21228C5.95233 5.04733 5.8133 4.88713 5.59934 4.85449C5.38591 4.82179 5.17768 4.92901 5.1353 5.09393C5.08702 5.28197 5.0625 5.47532 5.0625 5.66847C5.0625 6.47936 5.48145 7.2345 6.24224 7.79478C6.95897 8.32267 7.88766 8.60883 8.87418 8.60879C8.93433 8.60879 8.99465 8.60773 9.05519 8.60557C9.99236 8.57249 10.8797 8.27182 11.5537 7.75893C12.1959 7.27025 12.5897 6.6298 12.6728 5.94609C12.9973 6.19135 13.395 6.37607 13.8443 6.48422C14.1244 6.55165 14.4136 6.58507 14.7027 6.58507C15.1185 6.58507 15.5339 6.51583 15.921 6.37874C16.5773 6.14629 17.0945 5.73925 17.3773 5.23259C17.7452 4.57378 17.6898 3.84046 17.2253 3.22069ZM16.6521 4.99192C16.2298 5.74829 15.0998 6.14845 14.0798 5.90304C13.5201 5.76836 13.0691 5.47197 12.8097 5.06846C12.5502 4.66467 12.5171 4.20914 12.7165 3.7858C12.9331 3.32592 13.4006 2.96803 13.9992 2.80389C14.0521 2.7894 14.1058 2.78201 14.1641 2.78201C14.2325 2.78201 14.3071 2.79218 14.3938 2.81296C14.8371 3.22647 15.5332 3.42356 16.2202 3.32791C16.3815 3.38041 16.4778 3.44034 16.5415 3.52533C16.88 3.97696 16.9202 4.51146 16.6521 4.99192Z" fill="#333333"/>
<path d="M20.3833 9.63599C20.4442 8.95191 19.9997 8.29002 19.2167 7.93729C18.4336 7.58456 17.4674 7.61104 16.7245 7.98787C16.3215 7.81253 15.8543 7.76586 15.4058 7.85661C14.9484 7.94914 14.5652 8.17344 14.3267 8.48816C13.8493 9.1182 14.1029 9.92471 14.8872 10.3191C14.8822 10.3752 14.878 10.4309 14.8739 10.4856C14.8342 11.0207 14.7932 11.574 14.0467 12.5591C13.9367 12.7042 14.0001 12.8906 14.1884 12.9754L15.9933 13.7884C16.0542 13.8159 16.1231 13.83 16.1925 13.83C16.226 13.83 16.2597 13.8267 16.2927 13.82C16.394 13.7995 16.4806 13.7488 16.5334 13.6791C17.1099 12.9183 17.5987 12.5808 17.9603 12.3718C18.1347 12.271 18.17 12.0802 18.0392 11.9457C17.9084 11.8112 17.661 11.7839 17.4865 11.8848C16.946 12.1973 16.4959 12.5824 16.0573 13.1121L14.9209 12.6002C15.574 11.6503 15.6242 11.0345 15.6615 10.5319C15.7945 10.5432 15.9291 10.5436 16.0625 10.5315C16.2601 10.7578 16.5214 10.9472 16.8304 11.0864C17.1394 11.2255 17.4816 11.308 17.8343 11.3296C17.9818 11.601 18.2409 11.8317 18.5743 11.9819C18.8543 12.108 19.1611 12.1679 19.4642 12.1679C20.0732 12.1679 20.6668 11.9258 20.9955 11.4919C21.4833 10.8483 21.208 10.0204 20.3833 9.63599ZM20.3136 11.1849C20.041 11.5447 19.4394 11.6665 18.9725 11.4563C18.7329 11.3483 18.5683 11.1736 18.5092 10.9642C18.4696 10.8237 18.3083 10.7245 18.1236 10.7245C18.1168 10.7245 18.1099 10.7246 18.103 10.7249C17.7971 10.7371 17.4942 10.6804 17.2286 10.5607C16.963 10.4411 16.7504 10.2659 16.6137 10.0541C16.5276 9.92057 16.3287 9.85478 16.144 9.89872C15.8781 9.96183 15.6 9.93707 15.3604 9.82924C14.8937 9.61897 14.7358 9.15519 15.0085 8.79527C15.1406 8.621 15.3528 8.49675 15.6061 8.44549C15.8594 8.39419 16.1234 8.4221 16.3495 8.52394C16.3956 8.54473 16.4405 8.56905 16.483 8.59627C16.6314 8.6914 16.8473 8.6899 16.9935 8.59257C17.5032 8.2531 18.2364 8.20098 18.8183 8.46302C19.3998 8.72503 19.7012 9.24309 19.5679 9.75222C19.5296 9.89814 19.6339 10.044 19.8144 10.0969C19.8661 10.1121 19.9155 10.1303 19.9615 10.151C19.9616 10.151 19.9616 10.151 19.9616 10.151C20.4284 10.3612 20.5863 10.825 20.3136 11.1849Z" fill="#333333"/>
<path d="M11.6111 11.987C11.8292 11.987 12.006 11.8507 12.006 11.6826C12.006 11.5145 11.8292 11.3782 11.6111 11.3782C11.3931 11.3782 11.2163 11.5145 11.2163 11.6826C11.2163 11.8507 11.3931 11.987 11.6111 11.987Z" fill="#333333"/>
<path d="M10.7894 10.7692C11.0074 10.7692 11.1842 10.6329 11.1842 10.4648C11.1842 10.2967 11.0074 10.1604 10.7894 10.1604C10.5713 10.1604 10.3945 10.2967 10.3945 10.4648C10.3945 10.6329 10.5713 10.7692 10.7894 10.7692Z" fill="#333333"/>
<path d="M9.66973 11.8649C9.88779 11.8649 10.0646 11.7286 10.0646 11.5605C10.0646 11.3924 9.88779 11.2561 9.66973 11.2561C9.45167 11.2561 9.2749 11.3924 9.2749 11.5605C9.2749 11.7286 9.45167 11.8649 9.66973 11.8649Z" fill="#333333"/>
<path d="M8.53546 12.2912C8.75352 12.2912 8.93029 12.1549 8.93029 11.9868C8.93029 11.8187 8.75352 11.6824 8.53546 11.6824C8.3174 11.6824 8.14062 11.8187 8.14062 11.9868C8.14062 12.1549 8.3174 12.2912 8.53546 12.2912Z" fill="#333333"/>
<path d="M7.9002 11.1952C8.11826 11.1952 8.29503 11.0589 8.29503 10.8908C8.29503 10.7227 8.11826 10.5864 7.9002 10.5864C7.68214 10.5864 7.50537 10.7227 7.50537 10.8908C7.50537 11.0589 7.68214 11.1952 7.9002 11.1952Z" fill="#333333"/>
<path d="M9.24249 10.6474C9.46055 10.6474 9.63732 10.5111 9.63732 10.343C9.63732 10.1749 9.46055 10.0386 9.24249 10.0386C9.02443 10.0386 8.84766 10.1749 8.84766 10.343C8.84766 10.5111 9.02443 10.6474 9.24249 10.6474Z" fill="#333333"/>
<path d="M9.66973 9.55144C9.88779 9.55144 10.0646 9.41515 10.0646 9.24703C10.0646 9.07891 9.88779 8.94263 9.66973 8.94263C9.45167 8.94263 9.2749 9.07891 9.2749 9.24703C9.2749 9.41515 9.45167 9.55144 9.66973 9.55144Z" fill="#333333"/>
<path d="M7.8211 10.0995C8.03916 10.0995 8.21593 9.96325 8.21593 9.79513C8.21593 9.62701 8.03916 9.49072 7.8211 9.49072C7.60304 9.49072 7.42627 9.62701 7.42627 9.79513C7.42627 9.96325 7.60304 10.0995 7.8211 10.0995Z" fill="#333333"/>
</svg>
