<svg width="24" height="17" viewBox="0 0 24 17" fill="none" xmlns="http://www.w3.org/2000/svg">
<path d="M18.3262 5.23671C17.8219 4.87278 17.3803 4.34684 16.9128 3.78995C16.369 3.14222 15.8067 2.4725 15.0548 1.94193C14.1427 1.29821 13.1221 0.985352 11.9347 0.985352C10.7474 0.985352 9.72677 1.29821 8.81465 1.94186C8.06273 2.47246 7.50047 3.14219 6.95669 3.78988C6.48918 4.34677 6.04758 4.87278 5.5432 5.23664C3.62753 6.61879 0.421387 8.93204 0.421387 12.1533C0.421387 13.8436 1.44711 15.0814 3.47017 15.8323C5.3155 16.5173 8.00516 16.8363 11.9347 16.8363C15.8643 16.8363 18.5539 16.5173 20.3993 15.8323C22.4223 15.0814 23.448 13.8436 23.448 12.1533C23.448 8.93204 20.2419 6.61879 18.3262 5.23671ZM19.755 14.7721C18.1407 15.3713 15.5826 15.6627 11.9347 15.6627C8.28679 15.6627 5.72872 15.3714 4.11447 14.7721C2.59898 14.2096 1.92311 13.402 1.92311 12.1533C1.92311 9.44588 4.71465 7.43179 6.56182 6.09905C7.20184 5.6373 7.71553 5.02546 8.21227 4.43377C8.70397 3.84808 9.21235 3.24247 9.82103 2.81299C10.4533 2.36684 11.1249 2.15904 11.9347 2.15904C12.7445 2.15904 13.4161 2.36684 14.0484 2.81302C14.657 3.2425 15.1654 3.84812 15.6571 4.4338C16.1539 5.0255 16.6676 5.63737 17.3076 6.09908C19.1547 7.43182 21.9463 9.44592 21.9463 12.1534C21.9463 13.402 21.2705 14.2096 19.755 14.7721Z" fill="#333333"/>
<path d="M10.7088 5.5921L9.81387 4.64966C9.18639 5.01366 9.07162 5.77593 8.91272 6.83106C8.71799 8.12437 8.47567 9.7339 7.27441 10.6562L8.32685 11.4934C9.90525 10.2814 10.1936 8.36647 10.4041 6.96818C10.4833 6.44295 10.5915 5.7237 10.7427 5.56782C10.7426 5.56796 10.7322 5.57857 10.7088 5.5921Z" fill="#333333"/>
<path d="M14.9564 6.8311C14.7976 5.77593 14.6827 5.01362 14.0553 4.64966L13.1603 5.5921C13.1369 5.57857 13.1266 5.56796 13.1265 5.56789C13.2776 5.72374 13.3859 6.44306 13.465 6.96822C13.6756 8.36647 13.9639 10.2815 15.5424 11.4935L16.5948 10.6562C15.3935 9.73394 15.1512 8.12437 14.9564 6.8311Z" fill="#333333"/>
</svg>
