<svg width="22" height="20" viewBox="0 0 22 20" fill="none" xmlns="http://www.w3.org/2000/svg">
<path d="M10.5579 4.7006L10.1495 4.44751C10.0631 4.39402 9.99836 4.32586 9.95704 4.24984C9.92307 4.18716 9.90467 4.11922 9.90592 4.04887C9.90669 4.00535 9.91524 3.96301 9.92975 3.92222C9.96708 3.81701 10.0475 3.7234 10.1634 3.65546C10.7274 3.32503 11.0608 2.82237 11.078 2.27641C11.0953 1.73041 10.7941 1.21582 10.2517 0.864569C9.89943 0.636449 9.37411 0.671716 9.07833 0.943289C8.78249 1.21486 8.82818 1.61983 9.18038 1.84795C9.38925 1.9832 9.41568 2.15483 9.41284 2.24507C9.41001 2.33527 9.37277 2.50568 9.15549 2.63292C8.58366 2.96803 8.25011 3.47772 8.24045 4.03146C8.23075 4.58517 8.54628 5.10168 9.10615 5.44853L9.51461 5.70161C9.66846 5.79693 9.85268 5.84327 10.0358 5.84327C10.2795 5.84327 10.521 5.76118 10.6855 5.60333C10.9736 5.32687 10.9165 4.92272 10.5579 4.7006Z" fill="#333333"/>
<path d="M14.0169 5.03284L13.5378 4.73597C13.4949 4.70937 13.4569 4.67962 13.4215 4.64836C13.2761 4.51963 13.1954 4.35504 13.1984 4.18045C13.2009 4.04264 13.2548 3.91202 13.3509 3.80119C13.4062 3.73743 13.4753 3.68016 13.5572 3.63219C14.1836 3.26512 14.5539 2.70682 14.5731 2.1004C14.5923 1.49402 14.2578 0.922424 13.6553 0.532309C13.3031 0.304189 12.7778 0.339418 12.4819 0.610991C12.1861 0.882527 12.2318 1.28753 12.584 1.51562C12.7966 1.65331 12.9146 1.85506 12.9079 2.0691C12.9011 2.28314 12.7704 2.48022 12.5493 2.60973C11.9142 2.98184 11.5437 3.54799 11.533 4.163C11.5222 4.77801 11.8727 5.35168 12.4944 5.73695L12.9735 6.03382C13.1274 6.12913 13.3116 6.17548 13.4947 6.17548C13.7384 6.17548 13.9798 6.09339 14.1444 5.93558C14.4325 5.65915 14.3755 5.255 14.0169 5.03284Z" fill="#333333"/>
<path d="M17.3451 4.7006L16.9366 4.44751C16.8502 4.39402 16.7855 4.32589 16.7442 4.24984C16.7101 4.18716 16.6918 4.11922 16.693 4.04887C16.6938 4.00535 16.7024 3.96297 16.7169 3.92218C16.7542 3.81701 16.8346 3.72336 16.9505 3.65546C17.5145 3.32503 17.8479 2.82237 17.8651 2.27641C17.8824 1.73041 17.5813 1.21582 17.0388 0.864569C16.6865 0.636449 16.1612 0.671716 15.8654 0.943289C15.5696 1.21486 15.6153 1.61983 15.9675 1.84795C16.1764 1.9832 16.2028 2.15483 16.2 2.24507C16.1971 2.33527 16.1598 2.50568 15.9426 2.63292C15.3708 2.96803 15.0372 3.47772 15.0276 4.03146C15.0179 4.58517 15.3334 5.10168 15.8933 5.44853L16.3017 5.70161C16.4556 5.79693 16.6398 5.84327 16.8229 5.84327C17.0666 5.84327 17.3081 5.76118 17.4726 5.60333C17.7607 5.32687 17.7036 4.92272 17.3451 4.7006Z" fill="#333333"/>
<path d="M21.7421 9.34864V7.03991C21.7421 6.68529 21.3692 6.39264 20.9093 6.39264C20.6073 6.39264 20.3435 6.52622 20.1975 6.69747H5.80758L1.99322 1.05153C1.78085 0.736984 1.27787 0.617256 0.869939 0.780993C0.461909 0.944692 0.303299 1.33366 0.515579 1.64828L4.25257 7.18598V9.34864C4.25257 11.9536 6.16684 14.2192 8.96462 15.3495L6.36403 18.3496C6.10846 18.6444 6.21128 19.0432 6.59366 19.2402C6.73583 19.3135 6.89665 19.3486 7.05564 19.3486C7.32443 19.3486 7.58827 19.2484 7.74884 19.0632L8.906 17.7283L12.1923 18.51V18.6832C12.1923 19.0379 12.5652 19.3253 13.0251 19.3253C13.4851 19.3253 13.8579 19.0378 13.8579 18.6832V18.51L17.1442 17.7283L18.3013 19.0632C18.4619 19.2484 18.7257 19.3486 18.9945 19.3486C19.1536 19.3486 19.3144 19.3135 19.4565 19.2402C19.8389 19.0432 19.9417 18.6444 19.6861 18.3496L17.0739 15.3362C19.8473 14.2014 21.7421 11.9434 21.7421 9.34864ZM5.91833 7.9817H20.0765V8.53818H5.91833V7.9817ZM12.1923 17.1661L9.87188 16.6141L10.5415 15.8416C11.0727 15.9623 11.6247 16.0449 12.1923 16.0854V17.1661ZM13.858 17.1661V16.083C14.4234 16.0406 14.9731 15.9561 15.5021 15.8339L16.1785 16.6141L13.858 17.1661ZM13.0113 14.8307H13.0044C9.30798 14.8307 6.26414 12.6476 5.94629 9.82236H20.0487C19.7317 12.6476 16.6968 14.8307 13.0113 14.8307Z" fill="#333333"/>
</svg>
