<svg width="25" height="18" viewBox="0 0 25 18" fill="none" xmlns="http://www.w3.org/2000/svg">
<path d="M7.38983 5.89605C7.46836 5.9566 7.57146 5.98703 7.67455 5.98703C7.77765 5.98703 7.88075 5.9566 7.95928 5.89605C8.11675 5.77465 8.11675 5.57842 7.95928 5.45702C7.55051 5.14156 7.55051 4.62863 7.95928 4.31317C8.30965 4.04304 8.50296 3.68411 8.50296 3.30221C8.50296 2.9203 8.31006 2.56137 7.95928 2.29125C7.80182 2.16984 7.54729 2.16984 7.38983 2.29125C7.23236 2.41265 7.23236 2.60888 7.38983 2.73028C7.58797 2.88304 7.69751 3.08611 7.69751 3.30221C7.69751 3.51831 7.58837 3.72137 7.38983 3.87413C6.66693 4.43147 6.66693 5.33872 7.38983 5.89605Z" fill="#333333"/>
<path d="M16.2502 5.89605C16.3287 5.9566 16.4318 5.98703 16.5349 5.98703C16.638 5.98703 16.7411 5.9566 16.8196 5.89605C16.9771 5.77465 16.9771 5.57842 16.8196 5.45702C16.4109 5.14156 16.4109 4.62863 16.8196 4.31317C17.17 4.04304 17.3633 3.68411 17.3633 3.30221C17.3633 2.9203 17.1704 2.56137 16.8196 2.29125C16.6622 2.16984 16.4076 2.16984 16.2502 2.29125C16.0927 2.41265 16.0927 2.60888 16.2502 2.73028C16.4483 2.88304 16.5579 3.08611 16.5579 3.30221C16.5579 3.51831 16.4487 3.72137 16.2502 3.87413C15.5273 4.43147 15.5273 5.33872 16.2502 5.89605Z" fill="#333333"/>
<path d="M11.82 4.03326C11.8985 4.09381 12.0016 4.12424 12.1047 4.12424C12.2078 4.12424 12.3109 4.09381 12.3895 4.03326C12.5469 3.91186 12.5469 3.71563 12.3895 3.59423C11.9807 3.27877 11.9807 2.76583 12.3895 2.45037C12.7398 2.18025 12.9331 1.82132 12.9331 1.43941C12.9331 1.05751 12.7402 0.698582 12.3895 0.428454C12.232 0.307052 11.9775 0.307052 11.82 0.428454C11.6625 0.549856 11.6625 0.746087 11.82 0.867489C12.0181 1.02025 12.1277 1.22331 12.1277 1.43941C12.1277 1.65552 12.0185 1.85858 11.82 2.01134C11.0971 2.56867 11.0971 3.47593 11.82 4.03326Z" fill="#333333"/>
<path d="M10.2072 8.31975C10.2366 8.31975 10.2664 8.31727 10.2962 8.3123C10.8754 8.2117 11.4742 8.16078 12.0767 8.16078C12.0783 8.16078 12.0799 8.16078 12.0819 8.16078C12.3042 8.16078 12.4846 8.02199 12.4846 7.8506C12.4846 7.6789 12.3046 7.53979 12.0819 7.53979C12.0803 7.53979 12.0783 7.53979 12.0763 7.53979C11.4146 7.53979 10.7561 7.59599 10.119 7.70653C9.90197 7.7441 9.76584 7.91021 9.81457 8.07757C9.85726 8.22194 10.0232 8.31975 10.2072 8.31975Z" fill="#333333"/>
<path d="M3.95551 13.4342C3.98007 13.4379 4.00424 13.4395 4.028 13.4395C4.21889 13.4395 4.38844 13.3345 4.42388 13.1849C4.84231 11.4157 6.22527 9.84152 8.12331 8.97463C8.31461 8.88738 8.37784 8.69674 8.26467 8.54925C8.1511 8.40177 7.90423 8.35302 7.71294 8.44027C5.61715 9.39752 4.09163 11.1294 3.63172 13.0731C3.59144 13.242 3.73642 13.4035 3.95551 13.4342Z" fill="#333333"/>
<path d="M22.4012 13.0116C21.6715 9.70771 18.3309 7.0825 14.0781 6.44661C14.0849 6.39693 14.0954 6.34694 14.0954 6.29758C14.0954 5.44155 13.1921 4.74512 12.0818 4.74512C10.9714 4.74512 10.0681 5.44155 10.0681 6.29758C10.0681 6.34694 10.0782 6.39693 10.0855 6.44661C5.83267 7.0825 2.49206 9.70771 1.76233 13.0116C0.92063 13.379 0 13.9195 0 14.5259C0 16.1048 6.24708 17.1651 12.0818 17.1651C17.9164 17.1651 24.1635 16.1048 24.1635 14.5259C24.1635 13.9195 23.2429 13.379 22.4012 13.0116ZM10.876 6.35129C10.8744 6.33328 10.8736 6.31527 10.8736 6.29789C10.8736 5.78433 11.4157 5.36641 12.0818 5.36641C12.7479 5.36641 13.2899 5.78433 13.2899 6.29789C13.2899 6.31558 13.2891 6.33328 13.2875 6.35129C13.2686 6.34974 13.2497 6.34912 13.2311 6.34756C13.0926 6.33577 12.9533 6.32738 12.8131 6.31993C12.7616 6.31714 12.7104 6.3131 12.6589 6.31093C12.468 6.30285 12.2759 6.2982 12.0822 6.2982C11.8885 6.2982 11.6964 6.30285 11.5055 6.31093C11.4539 6.3131 11.4028 6.31714 11.3512 6.31993C11.2111 6.32738 11.0717 6.33608 10.9332 6.34756C10.9139 6.34912 10.8949 6.34943 10.876 6.35129ZM10.6315 7.0027C10.8478 6.97786 11.0653 6.95985 11.2836 6.94619C11.3283 6.9434 11.373 6.94091 11.4177 6.93843C11.8599 6.91545 12.3041 6.91545 12.7463 6.93843C12.791 6.94091 12.8357 6.9434 12.8804 6.94619C13.0986 6.95985 13.3161 6.97786 13.5324 7.0027C17.728 7.49173 21.046 10.0679 21.6481 13.3106C21.6666 13.4103 21.6815 13.5103 21.6948 13.6103C21.6992 13.6447 21.7053 13.6789 21.7093 13.7134C21.725 13.8509 21.7367 13.9885 21.7423 14.126C15.4155 15.2565 8.74881 15.2565 2.42199 14.126C2.42803 13.9885 2.43931 13.8509 2.45501 13.7134C2.45904 13.6789 2.46468 13.6447 2.46951 13.6103C2.4828 13.51 2.4977 13.41 2.51623 13.3106C3.1179 10.0679 6.43595 7.49142 10.6315 7.0027ZM12.0818 16.5441C5.19677 16.5441 0.805451 15.2186 0.805451 14.5259C0.805451 14.407 0.996343 14.1449 1.63668 13.8031C1.63506 13.8208 1.63587 13.8382 1.63426 13.8559C1.62057 14.026 1.6109 14.1974 1.6109 14.3707V14.6153L1.91979 14.6728C5.24389 15.2875 8.66302 15.5956 12.0818 15.5956C15.5005 15.5956 18.9196 15.2879 22.2437 14.6728L22.5526 14.6153V14.3707C22.5526 14.1974 22.543 14.0263 22.5293 13.8559C22.5277 13.8382 22.5285 13.8208 22.5268 13.8031C23.1672 14.1449 23.3581 14.407 23.3581 14.5259C23.3581 15.2186 18.9668 16.5441 12.0818 16.5441Z" fill="#333333"/>
</svg>
