<svg width="20" height="17" viewBox="0 0 20 17" fill="none" xmlns="http://www.w3.org/2000/svg">
<path d="M11.7 0.050224C11.2019 -0.00852436 10.707 0.0306412 10.2107 0.0751319C10.1979 0.0762484 10.1891 0.0815736 10.1769 0.0834631C5.82128 -0.598756 2.03703 3.03814 0.696052 6.00321C-1.02414 9.80665 0.404716 14.3463 5.42166 15.9336C10.6729 17.5951 16.1856 14.937 18.4499 11.0796C21.0208 6.70038 18.0336 0.797118 11.7 0.050224ZM17.7117 10.7346C15.8045 14.2825 10.7185 16.7245 5.97361 15.3966C1.07247 14.0249 0.0382901 9.72523 1.55223 6.19183C2.2435 4.5784 3.51262 3.14387 5.14429 2.05462C6.79316 0.953866 8.76021 0.653854 10.8199 0.642173C16.9776 0.839375 19.9757 6.52267 17.7117 10.7346Z" fill="#333333"/>
<path d="M12.9305 2.11516C12.0575 1.88729 11.1231 1.82433 10.2108 1.8373C10.1359 1.83833 10.0786 1.85835 10.0293 1.88489C1.56136 1.36036 -1.15971 13.5452 7.7921 14.8745C12.2019 15.5293 15.7465 13.0351 16.9319 9.79461C18.0055 6.85994 16.9053 3.15253 12.9305 2.11516ZM9.40186 14.3411C5.11314 14.4796 2.77053 11.5779 3.05768 8.42545C3.35589 5.151 6.17987 2.88687 10.0562 2.35015C10.1 2.36819 10.1502 2.38047 10.2108 2.38124C19.4825 2.49977 17.667 14.074 9.40186 14.3411Z" fill="#333333"/>
<path d="M5.4656 10.5031C5.38385 10.5018 5.34776 10.4605 5.28717 10.4251C5.22927 10.3911 5.17212 10.3778 5.10068 10.3767C5.03214 10.3756 5.01388 10.4666 5.08414 10.4742C5.23152 10.4904 5.28588 10.6218 5.44272 10.6389C5.56884 10.6526 5.58957 10.5053 5.4656 10.5031Z" fill="#333333"/>
<path d="M16.0607 7.30812C15.9963 7.18933 15.8139 7.04435 15.7099 6.95314C15.5387 6.80283 15.5796 6.54052 15.5117 6.35354C15.4595 6.20976 15.3214 6.10541 15.175 6.0093C15.442 5.78384 15.5097 5.47464 15.1331 5.09896C14.9706 4.9368 14.4611 4.70782 14.4066 4.50864C14.3541 4.31685 14.3291 4.17831 14.1775 4.02285C13.9243 3.76338 13.1412 3.92013 12.8079 3.88319C12.7284 3.87435 12.6677 3.90784 12.6347 3.95251C12.5056 3.83011 12.3579 3.73108 12.1996 3.69243C12.1963 3.67749 12.1898 3.66237 12.1777 3.64768C11.7861 3.17169 11.3015 2.86197 10.6381 2.65695C10.5666 2.63488 10.458 2.65901 10.4089 2.70539C10.1647 2.93601 10.1436 3.13536 10.053 3.38778C9.78218 3.37404 9.42445 3.34647 9.22249 3.46234C9.03504 3.56987 9.10518 3.80555 9.00474 3.95689C8.99185 3.97638 8.8406 3.97913 8.66904 3.99536C8.66507 3.96367 8.64229 3.93395 8.59588 3.92476C7.92158 3.79095 7.01696 3.68926 6.59671 4.26111C6.37789 4.55888 6.4114 4.68497 5.96828 4.75428C5.75289 4.78804 5.62591 4.91842 5.5317 5.06503C5.22941 5.53528 4.23401 5.96137 4.37033 6.57282C4.38269 6.62822 4.40675 6.67546 4.43318 6.72098C4.34176 6.74674 4.25915 6.78041 4.19856 6.82834C3.98812 6.99479 4.02142 7.2242 4.11198 7.43103C3.81183 7.56819 3.52264 7.77536 3.42983 8.04522C3.32638 8.34583 3.9011 8.39771 4.10338 8.49897C4.26678 8.58083 4.43908 8.39548 4.3062 8.2888C4.24314 8.23821 4.19405 8.20729 4.121 8.16589C4.06557 8.13953 4.0081 8.11651 3.94837 8.09701C3.93236 8.08722 3.92033 8.08078 3.90916 8.07511C4.05515 7.88804 4.23304 7.76264 4.474 7.64987C4.55274 7.61302 4.59399 7.53495 4.56842 7.46426C4.50966 7.30168 4.35164 7.09717 4.62063 7.03714C4.67843 7.02425 4.73644 7.01377 4.79445 7.00347C5.11253 7.12534 5.54352 7.12612 5.88652 7.07484C5.91832 7.15128 5.95581 7.22773 6.0048 7.3052C6.07033 7.40869 6.25413 7.41625 6.35124 7.34084C6.45136 7.26311 6.56459 7.20969 6.68974 7.16142C6.69114 7.1609 6.69275 7.16065 6.69425 7.16013C6.53397 7.38087 6.36822 7.59284 6.25757 7.82423C5.6055 7.57901 4.89016 7.69505 4.59829 8.37907C4.52019 8.56227 4.20264 8.71292 4.06149 8.88049C3.91249 9.05751 3.84728 9.27241 3.84728 9.48292C3.84728 9.81609 4.13045 10.0534 4.47829 10.1836C4.42447 10.2443 4.37817 10.3101 4.34853 10.3861C4.24497 10.6517 4.40729 10.9146 4.68315 11.0636C4.86083 11.1596 5.06967 11.1891 5.27614 11.1754C5.20449 11.4385 5.06956 11.7211 5.16323 11.9739C5.25755 12.2279 5.63021 12.2483 5.93916 12.231C5.88298 12.7916 6.06936 13.4209 6.78932 13.6473C7.36222 13.8274 7.93511 13.6303 8.3285 13.2895C8.35375 13.3037 8.37545 13.3193 8.40499 13.3316C8.73543 13.4707 9.11206 13.3698 9.44121 13.2211C9.51437 13.3911 9.73308 13.5244 10.1724 13.5754C11.1027 13.6832 11.3049 13.1681 11.1459 12.6533C11.359 12.894 11.6944 13.0456 12.1672 13.0037C12.8326 12.9445 12.9189 12.4875 13.271 12.1533C13.3632 12.0657 13.4998 12.0477 13.5834 11.9454C13.6609 11.8508 13.6231 11.7168 13.57 11.5966C14.0877 11.5802 14.4185 11.3112 14.7046 10.9175C14.7505 10.8545 14.6935 10.7488 14.5904 10.7584C14.4297 10.7733 14.3558 10.8125 14.2507 10.9172C13.9669 11.2002 13.8155 11.3488 13.313 11.3089C13.2061 11.3003 13.1073 11.405 13.1452 11.4849C13.2657 11.7385 13.2718 11.7686 13.0349 11.9084C12.8162 12.0374 12.7222 12.3015 12.5415 12.4537C12.2084 12.7347 11.8127 12.7002 11.4887 12.4529C11.1798 12.217 11.1458 11.825 11.2049 11.495C12.2251 11.4365 13.1724 10.7814 13.5698 9.99207C13.663 10.0089 13.7746 10.0037 13.8604 10.007C14.0552 10.0148 14.1054 9.82828 14.0133 9.7332C14.055 9.62584 13.8787 9.51582 13.7478 9.60703C13.7364 9.61511 13.7225 9.62069 13.7097 9.62747C13.8158 9.23307 13.7792 8.82398 13.5432 8.45122C13.5513 8.43061 13.5594 8.40999 13.5585 8.3838C13.5414 7.93631 13.8208 7.70398 13.5065 7.27187C13.4939 7.25461 13.4731 7.24344 13.4544 7.23065C13.5993 7.08068 13.7587 6.97014 13.8914 6.85445C13.8459 6.90306 13.8381 6.96954 13.915 7.02683C13.9303 7.03808 13.947 7.04521 13.9629 7.05449C13.9918 7.13728 13.9555 7.25856 13.9396 7.32701C13.9144 7.43592 13.8757 7.54328 13.8659 7.65417C13.8592 7.73301 13.9518 7.79313 14.0427 7.79554C14.3468 7.80361 14.6511 7.80172 14.9552 7.80224C15.0523 7.80241 15.1455 7.73464 15.1405 7.65408C15.1332 7.53521 14.9825 7.27591 15.0876 7.17619C15.129 7.13694 15.1487 7.08068 15.1343 7.03069C15.1416 7.03877 15.1479 7.04719 15.1579 7.0544C15.8356 7.53469 15.7889 8.06893 15.0138 8.50584C14.8836 8.57928 14.8479 8.71705 14.964 8.81445C15.2835 9.08208 15.0732 9.3388 14.8847 9.56065C14.7607 9.51255 14.6337 9.46772 14.5049 9.41816C14.418 9.38475 14.2877 9.39282 14.2415 9.47347C14.1208 9.68433 14.0953 9.99611 13.9073 10.1724C13.748 10.3219 14.0176 10.5397 14.1782 10.389C14.3693 10.2098 14.416 9.97713 14.5096 9.75974C14.5794 9.78611 14.6471 9.81342 14.7138 9.84168C14.7198 9.98254 14.9252 10.0801 15.0681 10.0261C15.0808 10.0343 15.0938 10.0412 15.1064 10.0498C15.0623 10.2229 14.9888 10.401 14.7368 10.3974C14.5285 10.3944 14.3323 10.374 14.1406 10.4568C13.9753 10.5283 14.0888 10.7514 14.2696 10.7014C14.4278 10.6577 14.6086 10.715 14.7719 10.7165C14.9801 10.7184 15.173 10.6447 15.2944 10.5086C15.4589 10.324 15.6207 10.0026 15.3921 9.82665C15.357 9.79968 15.3185 9.7789 15.2816 9.75554C15.5478 9.34558 15.797 9.15568 15.4652 8.71542C16.0298 8.33948 16.3924 7.92068 16.0607 7.30812ZM12.7209 6.04881C12.7462 5.6027 12.8761 5.16629 12.9358 4.72353C13.1478 4.84172 13.3424 4.98069 13.4439 5.17385C13.5837 5.44071 13.5328 5.76804 13.4813 6.05388C13.24 6.09046 13.0181 6.03713 12.7659 6.0458C12.7488 6.0464 12.7345 6.04984 12.7197 6.05293C12.7198 6.05138 12.7207 6.05035 12.7209 6.04881ZM9.11561 4.33609C9.19703 4.34262 9.27287 4.29572 9.31456 4.24487C9.44218 4.08907 9.52575 3.94435 9.54337 3.75788C9.54369 3.75419 9.5438 3.75264 9.54412 3.74929C9.74887 3.71631 10.0171 3.74414 10.2108 3.74311C10.3172 3.74251 10.3838 3.6884 10.4218 3.6147C10.4834 3.49463 10.5355 3.01537 10.8668 3.13518C11.2452 3.272 11.5584 3.4814 11.8293 3.72705C11.7792 3.74929 11.7289 3.77712 11.6784 3.81603C11.4698 3.9763 11.348 4.17685 11.2863 4.39466C11.2591 4.34262 11.1949 4.30165 11.1235 4.30199C10.811 4.30354 10.4706 4.25698 10.1635 4.30628C10.0543 4.32381 10.0158 4.41983 10.0464 4.49421C10.0946 4.72362 9.97941 4.95681 10.0447 5.18029C10.1327 5.48142 10.6433 5.47936 10.941 5.47996C11.0048 5.48005 11.0879 5.45042 11.1147 5.40034C11.2414 5.16252 11.1977 4.91387 11.2397 4.67183C11.2166 5.00955 11.3035 5.3653 11.4215 5.66823C11.113 5.77654 10.6396 5.96764 10.6656 6.24189C10.6902 6.50007 10.9382 6.64582 11.1985 6.76779C11.0667 6.79527 10.9344 6.81795 10.8028 6.79527C10.7573 6.78746 10.7189 6.79467 10.6867 6.80858C10.3948 6.57514 9.73738 6.12362 9.31681 6.40688C9.25451 6.44879 9.21089 6.49947 9.17501 6.55349C9.11131 6.53082 9.04556 6.50222 8.98122 6.49088C8.98616 6.45695 8.93384 6.43205 8.8971 6.45755C8.86982 6.47645 8.85542 6.50308 8.82846 6.51991C8.82158 6.5242 8.81868 6.53108 8.81331 6.53649C8.95565 6.07921 9.09315 5.60845 9.06286 5.17325C9.05588 5.07242 8.88969 5.02921 8.82137 5.12094C8.75305 5.21267 8.69708 5.31256 8.64594 5.41546C8.63015 5.39596 8.60706 5.38085 8.56828 5.38299C8.12998 5.4073 7.59565 5.66737 7.53646 6.044C7.48017 6.40181 7.85884 6.691 8.24675 6.82903C8.23494 6.88503 8.22312 6.94128 8.21055 6.99557C7.57503 6.84277 7.12363 6.4889 7.36866 5.90245C7.60822 5.32905 8.40811 5.01161 9.11582 4.99778C9.27384 4.99469 9.32251 4.78855 9.1546 4.76888C8.92901 4.74243 8.70814 4.74501 8.49544 4.76863C8.58622 4.51663 8.50919 4.28773 9.11561 4.33609ZM10.8712 4.59161C10.8553 4.64486 10.8417 4.69846 10.8367 4.75643C10.8247 4.89299 10.8398 5.02681 10.7978 5.15779C10.6883 5.15702 10.5741 5.15178 10.4801 5.1188C10.4295 5.10102 10.4344 5.09312 10.4313 5.03952C10.4227 4.88939 10.4335 4.7469 10.4178 4.60226C10.5671 4.60604 10.7203 4.59805 10.8712 4.59161ZM8.57805 5.55692C8.44216 5.88115 8.36707 6.24034 8.29681 6.58656C8.11398 6.44922 7.93737 6.3021 7.9161 6.09003C7.88817 5.8121 8.33248 5.68154 8.57805 5.55692ZM6.07828 6.2972C5.92724 6.2704 5.76234 6.35354 5.76728 6.48659C5.77126 6.5936 5.78447 6.69384 5.80338 6.79201C5.63494 6.7896 5.43803 6.78814 5.26819 6.75568C5.25605 6.69066 5.19697 6.63217 5.10039 6.63809C5.06698 6.64016 5.03078 6.64213 4.99286 6.64445C4.95483 6.61525 4.92142 6.58218 4.90026 6.53958C4.76684 6.27083 5.45178 5.88983 5.65524 5.7628C5.8269 5.65561 5.92992 5.37544 6.0337 5.2192C6.10427 5.11287 6.49552 5.09629 6.62571 5.07087C6.70156 5.05601 6.78406 4.99778 6.79727 4.93371C6.93725 4.25595 7.54151 4.09122 8.26265 4.08478C8.2257 4.10298 8.1939 4.12386 8.17317 4.14988C8.00118 4.36426 8.01869 4.62837 8.00097 4.8747C7.50047 5.0354 7.09086 5.34683 6.87827 5.79475C6.78449 5.99221 6.7629 6.17644 6.7933 6.34564C6.55492 6.33757 6.30602 6.33757 6.07828 6.2972ZM6.30484 6.93604C6.27605 6.84303 6.26144 6.75035 6.258 6.65312C6.46855 6.63303 6.68877 6.63389 6.89707 6.62366C6.92876 6.67735 6.96679 6.72854 7.00954 6.77758C6.78159 6.7519 6.52044 6.83083 6.30484 6.93604ZM6.72154 7.83943C6.82327 7.58399 6.98795 7.36343 7.06616 7.10121C7.06916 7.09116 7.06798 7.08188 7.06787 7.07244C7.10827 7.06127 7.14748 7.04753 7.18443 7.02863C7.2071 7.01704 7.22472 7.00115 7.23707 6.9832C7.52529 7.19294 7.91782 7.33543 8.32582 7.38954C8.43829 7.4044 8.57859 7.36738 8.60254 7.26388C8.65003 7.05904 8.71695 6.8444 8.78517 6.62633C8.79011 6.65527 8.80332 6.68327 8.82824 6.70122C8.90086 6.75336 8.98831 6.79501 9.08295 6.82825C9.06243 7.08317 9.16341 7.37408 9.24183 7.59593C8.91537 7.81993 8.52724 8.15791 8.61651 8.51924C8.69805 8.84975 9.02945 8.9821 9.39512 9.04059C9.21658 9.15414 9.09229 9.27971 9.00657 9.41129C8.57623 9.41009 8.20013 9.4021 7.76098 9.24235C7.59673 9.18248 7.45965 9.12957 7.4141 9.03029C7.41948 9.01929 7.42614 9.0095 7.43108 8.99799C7.45031 8.95359 7.43645 8.91829 7.4068 8.89398C7.40906 8.88487 7.40916 8.8768 7.41249 8.8671C7.47018 8.69549 7.52067 8.56116 7.53582 8.38345C7.54452 8.28116 7.41765 8.18144 7.29057 8.18728C7.12545 8.19493 6.95315 8.19518 6.83573 8.15318C6.7991 8.1239 6.76128 8.0965 6.72293 8.06978C6.68748 8.01713 6.67953 7.9449 6.72154 7.83943ZM8.1288 10.7975C8.06359 10.8158 7.99721 10.8389 7.93093 10.8649C7.77301 10.8224 7.61306 10.7817 7.46255 10.7268C7.1116 10.5986 7.34278 10.2719 7.45804 10.0668C7.50241 9.98795 7.48533 9.90292 7.38854 9.85457C7.11041 9.71585 6.89761 9.59552 7.14715 9.3607C7.15145 9.35666 7.15521 9.35271 7.15951 9.34868C7.68492 9.58745 8.27673 9.8142 8.87347 9.77452C8.84726 10.0166 8.92772 10.2655 9.08338 10.4962C8.98508 10.5047 8.87551 10.4899 8.78732 10.4844C8.64444 10.4755 8.52391 10.4974 8.38576 10.5085C8.24471 10.5199 8.12268 10.5951 8.12397 10.7179C8.12407 10.7457 8.12751 10.7707 8.1288 10.7975ZM8.64863 10.821C8.66088 10.819 8.67302 10.8159 8.68537 10.8145C8.8826 10.784 9.09541 10.8013 9.2747 10.7349C9.32573 10.7888 9.38073 10.8407 9.43863 10.8907C9.14762 10.8873 8.9738 11.1609 8.71416 11.2432C8.6873 11.176 8.66582 11.1075 8.65841 11.0361C8.65153 10.9691 8.64788 10.9024 8.64691 10.8352C8.6482 10.8289 8.64788 10.8263 8.64863 10.821ZM5.21265 10.8277C5.12402 10.8262 5.03228 10.8034 4.95172 10.7651C4.88833 10.7349 4.85632 10.7091 4.81271 10.6385C4.82646 10.6606 4.7981 10.5766 4.79982 10.5936C4.79745 10.5709 4.79949 10.5483 4.80196 10.5259C4.79702 10.5693 4.81421 10.4982 4.81754 10.4895C4.82066 10.4813 4.82033 10.481 4.8213 10.478C4.82324 10.4755 4.82474 10.4739 4.83075 10.4641C4.84622 10.4387 4.86427 10.4139 4.88178 10.3893C4.91895 10.3372 4.96869 10.2945 5.02154 10.2521C5.13122 10.1645 5.2553 10.0894 5.38346 10.0195C5.39323 10.039 5.40945 10.0559 5.44039 10.0613C5.58112 10.0859 5.70476 10.0765 5.84678 10.0706C5.97708 10.0653 6.07226 10.1065 6.15906 10.1686C6.03047 10.4142 5.84936 10.645 5.54545 10.7708C5.43362 10.8171 5.32921 10.8295 5.21265 10.8277ZM8.05951 12.894C7.80416 13.1683 7.4994 13.3985 7.01674 13.2952C6.41054 13.1653 6.33846 12.4731 6.4114 12.0789C6.43009 11.978 6.35511 11.8362 6.19559 11.8524C5.93766 11.8785 5.55866 11.9669 5.57317 11.6829C5.58294 11.4908 5.61539 11.3039 5.61882 11.1126C5.63966 11.1064 5.66104 11.1009 5.68134 11.0939C6.14112 10.937 6.41742 10.5369 6.55686 10.1737C6.57469 10.1271 6.55761 10.0616 6.50916 10.0294C6.3448 9.92027 6.17754 9.83739 5.95925 9.83146C5.83679 9.82811 5.7125 9.85396 5.59186 9.88145C5.62484 9.8069 5.54728 9.71122 5.429 9.73638C5.18687 9.78774 4.93345 9.86487 4.72741 9.98477C4.41298 9.81291 4.19351 9.60016 4.28783 9.2712C4.38193 8.94302 4.7895 8.7849 4.95247 8.49803C5.09717 8.24354 5.29397 8.00322 5.67146 7.98493C5.84517 7.97651 6.00727 8.0216 6.16164 8.08533C6.14939 8.1348 6.14005 8.18531 6.13435 8.23735C6.1278 8.29791 6.18377 8.3813 6.25521 8.4057C6.51399 8.49442 6.74796 8.53436 7.00568 8.55832C6.95347 8.74264 6.87988 8.91528 6.87816 9.11274C6.87816 9.11394 6.87934 9.11497 6.87934 9.11626C6.7543 9.22946 6.64881 9.3577 6.60638 9.49108C6.53 9.73097 6.80479 9.91323 7.04317 10.0427C6.89503 10.2955 6.75398 10.6172 6.99117 10.8455C7.13104 10.9801 7.32806 11.0391 7.53657 11.0722C7.30883 11.2283 7.13996 11.4271 7.14146 11.6482C7.14447 12.1157 7.65506 12.3087 8.14395 12.4257C8.08551 12.578 8.04533 12.7423 8.05951 12.894ZM10.4376 13.2183C10.4108 13.1833 10.3894 13.1453 10.3957 13.1137C10.4055 13.0654 10.4091 13.013 10.4086 12.962C10.4863 12.9472 10.4836 12.8463 10.3929 12.8463C10.3906 12.8463 10.3899 12.8482 10.3875 12.8482C10.3103 12.7076 10.0326 12.726 10.0134 12.9067C10.0022 13.0103 10.0375 13.1135 10.0982 13.2067C9.93848 13.1679 9.89884 13.074 9.92634 12.9562C9.94159 12.9381 9.94675 12.917 9.9446 12.8969C10.0349 12.6654 10.332 12.3667 10.5215 12.1892C10.7579 12.541 11.157 13.1465 10.4376 13.2183ZM10.9055 12.192C10.8372 12.1032 10.7597 12.0215 10.675 11.9522C10.5888 11.8816 10.4678 11.9309 10.4427 12.0068C10.0269 12.1835 9.57646 12.5601 9.44916 12.9028C9.24806 12.9413 9.04438 12.9718 8.83909 12.9766C8.75036 12.9786 8.68902 12.9604 8.64111 12.9327C8.69751 12.8446 8.74402 12.7537 8.77646 12.6613C8.82481 12.5233 8.68569 12.4436 8.54894 12.4545C8.55539 12.4229 8.56215 12.3922 8.56806 12.3637C8.58536 12.2818 8.5426 12.2023 8.43593 12.1778C8.12042 12.1053 7.42076 11.9057 7.61563 11.5449C7.71844 11.3543 7.94844 11.2334 8.17467 11.1195C8.2127 11.261 8.27425 11.3972 8.37351 11.5391C8.40854 11.5893 8.49319 11.6357 8.56828 11.6284C8.78807 11.6073 8.95382 11.5401 9.12753 11.4325C9.27997 11.3381 9.52876 11.2103 9.61126 11.0714C9.61868 11.0588 9.61868 11.0472 9.62168 11.0351C9.68463 11.0799 9.7492 11.1232 9.81666 11.1627C10.1727 11.3712 10.5477 11.4744 10.9188 11.4949C10.8532 11.7191 10.847 11.9643 10.9055 12.192ZM12.9559 8.31929C13.8377 9.77203 11.7212 11.977 9.93547 10.5897C9.40146 10.1748 9.44905 9.8099 9.7782 9.49821C10.0946 10.1395 10.845 10.6017 11.7507 10.355C12.7641 10.0789 13.0232 9.07795 12.7812 8.33991C12.7679 8.29945 12.7416 8.27343 12.7113 8.2541C12.7227 8.18745 12.6582 8.11436 12.5475 8.13351C12.2307 8.18823 11.907 8.24105 11.585 8.30091C11.4208 8.13996 11.4447 7.87988 11.3321 7.69574C11.179 7.44571 10.827 7.52095 10.5491 7.60117C10.3983 7.64472 10.2394 7.70999 10.12 7.79717C9.99831 7.88615 10.0038 7.96594 10.0447 8.08859C10.0779 8.18823 10.1611 8.27351 10.242 8.35107C10.3079 8.41446 10.425 8.47372 10.4457 8.55798C10.4469 8.56279 10.4504 8.56597 10.4523 8.57018C10.192 8.65134 9.94127 8.749 9.70461 8.86778C9.70236 8.8671 9.70096 8.86581 9.69871 8.86521C9.40909 8.79366 8.97681 8.67728 9.04137 8.37169C9.0938 8.12329 9.40812 7.92729 9.62985 7.77295C9.68528 7.73439 9.7029 7.66404 9.68399 7.60925C9.60997 7.39564 9.53005 7.14656 9.53768 6.91303C9.65885 6.91869 9.7782 6.91303 9.88552 6.89293C9.95986 6.8791 9.99316 6.82697 9.99047 6.77535C10.2075 6.87687 10.4339 7.02168 10.4849 7.04925C10.5558 7.08764 10.6277 7.07476 10.6797 7.03963C10.691 7.04435 10.7002 7.05028 10.7142 7.05337C10.8651 7.08678 11.0113 7.0952 11.167 7.07458C11.5393 7.02545 11.7627 6.9558 11.8251 7.36206C11.8399 7.45799 11.9103 7.52464 12.0363 7.53091C12.4127 7.54955 12.7925 7.54268 13.1704 7.54182C13.2555 7.72262 13.209 7.89148 13.1513 8.06987C13.0151 8.0636 12.8842 8.20102 12.9559 8.31929ZM12.3863 8.40647C12.3866 8.4136 12.384 8.41961 12.3854 8.427C12.4985 9.02067 12.4378 9.75511 11.6362 10.0233C10.9079 10.2673 10.3493 9.76618 10.0435 9.29311C10.6763 8.88298 11.746 8.58375 12.3863 8.40647ZM10.7042 8.49811C10.672 8.31612 10.4634 8.1957 10.4189 8.01627C10.6057 7.89594 10.8252 7.82543 11.0596 7.78609C11.1932 7.95083 11.1931 8.17388 11.3035 8.35477C11.1007 8.39625 10.9011 8.44461 10.7042 8.49811ZM12.8952 7.10611C12.873 7.13187 12.8617 7.15747 12.855 7.18255C12.6339 7.18229 12.4128 7.18315 12.1922 7.19019C12.1137 6.98638 12.0096 6.80051 11.7288 6.72871C11.6826 6.71685 11.636 6.71299 11.5893 6.71213C11.5864 6.70938 11.5852 6.70629 11.5818 6.70363C11.4241 6.58115 11.2598 6.4591 11.1385 6.31111C11.0459 6.19817 11.6966 5.9338 11.7729 5.8967C11.8733 5.84783 11.8931 5.75627 11.8455 5.67536C11.5916 5.2442 11.5558 4.73273 11.7422 4.28181C11.965 3.74294 12.3527 4.02379 12.6168 4.34451C12.5875 4.3719 12.5651 4.40411 12.5651 4.44371C12.5645 4.98189 12.4468 5.51226 12.4458 6.04881C12.4456 6.12405 12.5198 6.15806 12.5913 6.15376C12.5741 6.21157 12.5997 6.27959 12.672 6.3234C12.9091 6.46717 13.2844 6.46683 13.5808 6.40533C13.5138 6.69727 13.0941 6.87721 12.8952 7.10611ZM13.8294 5.0439C13.6569 4.72877 13.3169 4.52668 12.961 4.35112C12.9164 4.28258 12.8639 4.2094 12.8052 4.13725C13.3683 4.1869 14.1252 4.01263 13.9963 4.68497C13.9796 4.77275 14.0069 4.85039 14.1058 4.89978C14.3999 5.04648 14.6501 5.19885 14.833 5.43693C14.9552 5.59608 14.9221 5.70619 14.8141 5.7835C14.7298 5.76898 14.6327 5.80892 14.6141 5.87359C14.3968 5.93801 14.1106 5.95673 13.9345 5.96343C13.9753 5.65363 13.9859 5.3294 13.8294 5.0439ZM14.2347 7.50996C14.2543 7.38877 14.2854 7.26199 14.2817 7.14166C14.3089 7.14373 14.336 7.14604 14.3642 7.14699C14.4484 7.14982 14.5982 7.13067 14.7122 7.14372C14.6809 7.26122 14.7178 7.38001 14.7462 7.50618C14.5757 7.50609 14.4052 7.50747 14.2347 7.50996ZM15.1056 6.98406C15.0994 6.97762 15.0964 6.97014 15.0881 6.96447C14.9564 6.87455 14.8039 6.85454 14.635 6.84818C14.5191 6.8438 14.2697 6.88305 14.1712 6.82207C14.0881 6.77054 13.9902 6.78428 13.9258 6.82551C14.0497 6.7111 14.1413 6.58407 14.1568 6.39743C14.3933 6.36479 14.6324 6.30124 14.8375 6.21165C15.0061 6.37622 15.1657 6.50763 15.0994 6.87549C15.0926 6.91208 15.0931 6.94962 15.1056 6.98406Z" fill="#333333"/>
</svg>
