<svg width="13" height="14" viewBox="0 0 13 14" fill="none" xmlns="http://www.w3.org/2000/svg">
<path fill-rule="evenodd" clip-rule="evenodd" d="M3.91431 5.09709C3.91431 2.68085 5.87306 0.722092 8.28931 0.722092C10.7056 0.722092 12.6643 2.68085 12.6643 5.09709C12.6643 7.51334 10.7056 9.47209 8.28931 9.47209H7.03931V10.7221H5.78931V11.9721H4.53931V13.2221H0.164307V9.83821L4.00681 5.99571C3.94553 5.70238 3.91431 5.40166 3.91431 5.09709ZM5.7893 8.22234H8.2893C10.0152 8.22234 11.4143 6.82323 11.4143 5.09734C11.4143 3.37145 10.0152 1.97234 8.2893 1.97234C6.56341 1.97234 5.1643 3.37145 5.1643 5.09734C5.1643 5.40899 5.20973 5.71383 5.2981 6.00539L5.40673 6.3638L1.4143 10.3562V11.9723H3.2893V10.7223H4.5393V9.47234H5.7893V8.22234ZM7.03935 5.09692C7.03935 5.78728 7.599 6.34692 8.28936 6.34692C8.97971 6.34692 9.53936 5.78728 9.53936 5.09692C9.53936 4.40656 8.97971 3.84692 8.28936 3.84692C7.599 3.84692 7.03935 4.40656 7.03935 5.09692Z" fill="#C6C6C6"/>
</svg>
