<svg width="11" height="11" viewBox="0 0 11 11" fill="#00AC4E" xmlns="http://www.w3.org/2000/svg">
<path fill-rule="evenodd" clip-rule="evenodd" d="M8.74029 10.0661C8.6608 10.0661 8.58081 10.0475 8.50736 10.0092L5.94214 8.66903L3.37742 10.0092C3.20738 10.0973 3.00212 10.0822 2.84818 9.9695C2.69323 9.85681 2.61626 9.66614 2.64896 9.47748L3.13745 6.64613L1.06475 4.64135C0.926904 4.50803 0.877099 4.3078 0.93596 4.12468C0.99482 3.94256 1.15229 3.80925 1.34245 3.78208L4.21002 3.36553L5.49188 0.786724C5.66192 0.444627 6.22286 0.444627 6.3929 0.786724L7.67476 3.36553L10.5423 3.78208C10.7325 3.80925 10.89 3.94256 10.9488 4.12468C11.0077 4.3078 10.9579 4.50803 10.82 4.64135L8.74733 6.64613L9.23582 9.47748C9.26852 9.66614 9.19105 9.85681 9.0366 9.9695C8.94907 10.0339 8.84493 10.0661 8.74029 10.0661Z" fill="#00AC4E"/>
</svg>
